<?xml version="1.0" encoding="UTF-8"?>
<svg version="1.1" xmlns="http://www.w3.org/2000/svg" width="3921" height="1798">
<path d="M0 0 C4.19728172 1.9573939 8.43788191 3.79830873 12.703125 5.6015625 C48.78840003 20.88171947 48.78840003 20.88171947 61.4453125 32.50390625 C62.02748535 33.03838379 62.6096582 33.57286133 63.20947266 34.12353516 C88.95139994 58.05401745 109.46662388 92.46568563 112.78125 128.1171875 C113.53511523 156.0391959 106.63472016 183.93202535 99.25473022 210.63378906 C98.44438851 213.56975396 97.63972299 216.50721286 96.8371582 219.4453125 C96.44661003 220.87491806 96.44661003 220.87491806 96.048172 222.33340454 C95.53560741 224.21133748 95.02354506 226.08940758 94.51200867 227.96762085 C93.49865897 231.68265256 92.47740981 235.39285015 91.40820312 239.09228516 C86.60276183 255.77112518 87.06004257 272.45031161 87.45214844 289.66748047 C87.47010468 290.64933319 87.48806091 291.63118591 87.50656128 292.64279175 C87.54276398 294.49446234 87.59228196 296.34594072 87.65774536 298.19680786 C87.77476426 304.3288472 87.2178776 310.10910722 83.16940308 315.06616211 C79.5016583 318.48796305 76.38854245 319.58494281 71.4453125 319.50390625 C56.6164031 316.36893547 43.23221202 304.81007149 31.1875 296.16796875 C24.01935619 290.62396015 24.01935619 290.62396015 15.4453125 288.50390625 C10.94609649 290.84385996 9.66086571 294.85338418 7.6953125 299.25390625 C4.61144246 305.75495936 1.66988312 310.57518318 -4.5546875 314.50390625 C-5.15667969 314.89578125 -5.75867187 315.28765625 -6.37890625 315.69140625 C-14.82318608 320.50659307 -24.79739437 321.50616246 -34.3046875 322.44140625 C-57.67428014 324.78824695 -79.65329867 332.89388018 -99.15234375 346.0234375 C-105.44770202 349.90301601 -111.27964886 350.3955016 -118.5546875 349.50390625 C-128.69529001 345.9207774 -135.02991376 335.23182388 -140.32202148 326.46508789 C-144.32744431 319.9207692 -148.78734446 315.88757777 -155.5546875 312.50390625 C-156.5446875 312.50390625 -157.5346875 312.50390625 -158.5546875 312.50390625 C-159.41584604 313.77719066 -160.24202678 315.07413432 -161.0546875 316.37890625 C-161.51875 317.09820312 -161.9828125 317.8175 -162.4609375 318.55859375 C-165.46182036 326.6395426 -163.11725848 336.3102199 -162.0546875 344.62890625 C-158.53370438 372.38440378 -166.35639551 390.45831342 -182.5546875 412.50390625 C-182.97508301 413.07737793 -183.39547852 413.65084961 -183.82861328 414.24169922 C-189.89779716 422.45521563 -196.44733223 430.239506 -203.17333984 437.91845703 C-204.40334917 439.33020686 -205.61511611 440.75780376 -206.82421875 442.1875 C-212.61907361 448.90695137 -219.17245828 454.50912273 -225.96875 460.17333984 C-228.04753055 461.91739065 -230.0847117 463.706243 -232.1171875 465.50390625 C-234.20625666 467.34641145 -236.30011427 469.09073158 -238.4921875 470.81640625 C-240.64449625 472.34264383 -240.64449625 472.34264383 -241.5546875 474.50390625 C-242.2146875 474.50390625 -242.8746875 474.50390625 -243.5546875 474.50390625 C-243.81378906 475.07496094 -244.07289063 475.64601563 -244.33984375 476.234375 C-245.6597122 478.70010995 -247.21244866 480.66158267 -248.9921875 482.81640625 C-254.31667526 489.61622083 -256.10750268 494.86036495 -255.5546875 503.50390625 C-255.10447872 506.41970372 -254.40305903 509.2242484 -253.6171875 512.06640625 C-253.39683838 512.8759375 -253.17648926 513.68546875 -252.94946289 514.51953125 C-242.30855615 552.12000892 -223.7632593 589.03429074 -204.15039062 622.74316406 C-202.00928764 626.44750809 -199.9224538 630.18125625 -197.83325195 633.91503906 C-177.55881546 670.08983537 -156.5762089 702.37532398 -124.5546875 729.50390625 C-123.96486084 730.00486816 -123.37503418 730.50583008 -122.76733398 731.02197266 C-121.62213689 731.99218454 -120.47600204 732.9612908 -119.32885742 733.92919922 C-114.54579056 737.98024059 -109.79700082 742.07147896 -105.2421875 746.37890625 C-104.54480469 747.03632812 -103.84742188 747.69375 -103.12890625 748.37109375 C-101.12266114 751.08923229 -100.72361213 753.15280679 -100.5546875 756.50390625 C-102.5546875 758.50390625 -102.5546875 758.50390625 -104.43969727 758.64746094 C-110.53515828 758.04527634 -114.49725086 756.20926511 -119.4921875 752.75390625 C-120.88217214 751.84208412 -122.27409744 750.93321331 -123.66796875 750.02734375 C-124.3326416 749.59131836 -124.99731445 749.15529297 -125.68212891 748.70605469 C-133.98385962 743.30409574 -133.98385962 743.30409574 -143.5546875 742.50390625 C-145.18481588 744.13403463 -144.76445206 745.9482807 -144.8046875 748.19140625 C-144.71519321 753.94344864 -143.22846689 757.24244432 -139.796875 761.87890625 C-139.16007813 762.74515625 -138.52328125 763.61140625 -137.8671875 764.50390625 C-137.24457031 765.30828125 -136.62195313 766.11265625 -135.98046875 766.94140625 C-134.27450054 770.00747514 -134.28847279 772.04813799 -134.5546875 775.50390625 C-138.13521663 776.57044684 -140.27925981 777.08012626 -143.7421875 775.515625 C-148.5975176 772.38832037 -152.61343998 768.6571014 -156.59765625 764.5 C-158.46642627 762.59392918 -160.39842234 760.85894171 -162.4296875 759.12890625 C-165.58836576 756.42586579 -168.47832961 753.55566679 -171.3671875 750.56640625 C-180.09517156 741.28616509 -180.09517156 741.28616509 -191.4921875 736.69140625 C-195.43212822 737.73669665 -196.22200234 739.22046386 -198.5546875 742.50390625 C-199.54410037 744.30575577 -200.47804105 746.13898579 -201.359375 747.99609375 C-202.11154297 749.54876953 -202.11154297 749.54876953 -202.87890625 751.1328125 C-203.90827113 753.28747802 -204.93434437 755.44371934 -205.95703125 757.6015625 C-208.91110987 763.68348907 -211.87915316 768.60506281 -216.5546875 773.50390625 C-218.2046875 773.17390625 -219.8546875 772.84390625 -221.5546875 772.50390625 C-221.60938265 770.17024656 -221.64868558 767.83790797 -221.6796875 765.50390625 C-221.71449219 763.55484375 -221.71449219 763.55484375 -221.75 761.56640625 C-221.69442293 758.01417622 -220.95638083 754.93260411 -220.02197266 751.52197266 C-217.11206506 738.95494223 -220.11437475 727.04073506 -226.5546875 716.19140625 C-230.83302458 709.76475888 -235.91329895 704.04872119 -241.00830078 698.26806641 C-243.45300949 695.47907601 -245.84927913 692.64984652 -248.2421875 689.81640625 C-248.9242627 689.01033936 -248.9242627 689.01033936 -249.62011719 688.18798828 C-253.20931604 683.93666646 -256.72991757 679.63148073 -260.2421875 675.31640625 C-262.81615295 672.18590774 -265.43045653 669.09224991 -268.0546875 666.00390625 C-273.70326694 659.35356974 -279.22292258 652.60269619 -284.7265625 645.83203125 C-288.80745179 640.82498268 -292.9327244 635.86185187 -297.1171875 630.94140625 C-300.98581053 626.3923521 -304.75246712 621.77884017 -308.4609375 617.09765625 C-310.94279791 614.02311276 -313.49317263 611.01211581 -316.0546875 608.00390625 C-319.94426184 603.43604102 -323.73216829 598.80544488 -327.45703125 594.1015625 C-330.41823685 590.43452018 -333.47341525 586.84933618 -336.54980469 583.27856445 C-339.33253216 580.02929806 -341.84971144 576.70009114 -344.3046875 573.19140625 C-346.72243037 570.039086 -347.10077037 569.59782014 -351.1796875 568.75390625 C-356.87285377 570.01905431 -359.78638519 572.27966949 -362.94921875 577.20703125 C-363.31402344 577.8 -363.67882812 578.39296875 -364.0546875 579.00390625 C-364.41949219 579.5659375 -364.78429687 580.12796875 -365.16015625 580.70703125 C-371.41194013 590.62214113 -374.96887776 601.33678877 -378.0546875 612.56640625 C-378.24822815 613.2623288 -378.4417688 613.95825134 -378.64117432 614.67526245 C-382.37462562 628.15073021 -385.33822501 641.69224959 -387.5546875 655.50390625 C-387.78212646 656.90600342 -387.78212646 656.90600342 -388.01416016 658.33642578 C-395.58437175 706.45102538 -393.80928156 756.30733278 -388.66002655 804.58317184 C-388.34397202 807.56169608 -388.03634147 810.54107108 -387.72838783 813.52044201 C-386.93083167 821.23260625 -386.11483156 828.94269444 -385.28782082 836.65175152 C-384.72554992 841.8952353 -384.17120046 847.13950448 -383.62109375 852.38427734 C-382.88280901 859.41609675 -382.12814845 866.44601504 -381.36090088 873.47473145 C-381.07843958 876.07305552 -380.79945918 878.67176091 -380.52435303 881.27087402 C-378.40502426 901.18478884 -375.598479 921.0923959 -369.1171875 940.12890625 C-368.79137695 941.0928833 -368.46556641 942.05686035 -368.12988281 943.05004883 C-361.34048073 962.25771261 -351.464353 980.31112816 -341.2421875 997.8671875 C-331.2903216 1014.97722813 -325.74946581 1032.22079966 -321.93457031 1051.64404297 C-321.03980464 1056.03418078 -320.10414762 1059.79320135 -317.5546875 1063.50390625 C-311.19049563 1067.64981009 -303.92511014 1069.18366531 -296.64627075 1071.07931519 C-272.98238629 1077.29731269 -250.47938142 1085.90614585 -230.8046875 1100.75390625 C-218.57908907 1109.92310507 -203.85999293 1115.0323713 -188.5546875 1113.50390625 C-184.16571169 1111.99046632 -181.98537089 1110.40508594 -179.5546875 1106.50390625 C-178.87034191 1103.61198493 -178.87034191 1103.61198493 -178.5546875 1100.44140625 C-176.31196164 1084.15885182 -171.07986206 1072.10972451 -157.8671875 1062.00390625 C-154.01148013 1059.1893825 -150.10179201 1056.53407868 -146.0546875 1054.00390625 C-132.18682107 1045.37024787 -132.18682107 1045.37024787 -122.5546875 1032.50390625 C-122.0184375 1031.47394531 -121.4821875 1030.44398437 -120.9296875 1029.3828125 C-118.64873323 1023.95563919 -119.11936612 1018.11865664 -119.11523438 1012.33007812 C-118.98964965 1006.34964698 -118.21280437 1001.40094297 -114.5546875 996.50390625 C-107.19752361 990.94051006 -97.42760916 990.57121142 -88.5546875 990.06640625 C-76.14855506 989.2673213 -64.43933848 986.02607547 -55.7421875 976.75390625 C-52.46748938 972.88538084 -49.91945758 968.95446935 -47.5859375 964.46875 C-43.83510974 957.3222865 -38.20610723 953.59042675 -30.65234375 951.21875 C-28.53453579 950.57398866 -26.41598576 949.95454688 -24.27832031 949.37890625 C-19.89123505 948.14669828 -16.86279937 946.65003901 -13.5546875 943.50390625 C-12.03847972 940.47149069 -12.0470437 937.78218425 -12.5546875 934.50390625 C-14.99783418 927.29205082 -19.731407 921.4073534 -24.24755859 915.39575195 C-34.97320255 901.01372046 -44.4535693 886.18003452 -41.9296875 867.56640625 C-38.67568216 850.86538548 -28.68629812 834.95201527 -16.4296875 823.31640625 C-12.76132092 821.00374036 -10.81402302 820.72948161 -6.5546875 821.50390625 C-2.5747869 825.05691982 0.7074098 829.14559784 4.0078125 833.31640625 C4.52811035 833.97020264 5.0484082 834.62399902 5.58447266 835.29760742 C9.75207361 840.56323264 13.79143912 845.91885819 17.80078125 851.30541992 C26.57879861 863.08098239 35.70666857 874.59446744 44.79296875 886.1328125 C46.61750449 888.44984435 48.43731007 890.7704884 50.25390625 893.09375 C52.97446833 896.57166918 55.70593845 900.04078875 58.4453125 903.50390625 C58.86619141 904.03741699 59.28707031 904.57092773 59.72070312 905.12060547 C60.9141933 906.62844404 62.11707052 908.12883802 63.3203125 909.62890625 C63.99835938 910.47710938 64.67640625 911.3253125 65.375 912.19921875 C74.92176587 922.82675056 90.24381958 922.3652152 103.64324951 923.95147705 C131.89368598 927.32932646 131.89368598 927.32932646 144.8203125 930.62890625 C145.71911133 930.85811768 146.61791016 931.0873291 147.54394531 931.32348633 C169.39594711 937.36989319 187.59927 957.54717007 201.13769531 974.84130859 C202.61976146 976.72571308 204.12271306 978.59261786 205.625 980.4609375 C238.10429885 1021.17371336 254.23419903 1062.61973523 248.9140625 1115.55859375 C244.83630199 1149.81002688 229.27698026 1175.55044272 205.77929688 1200.10693359 C204.64172577 1201.29821871 203.51853026 1202.50320389 202.3984375 1203.7109375 C192.58629769 1214.00529785 180.62871236 1222.26959373 168.4453125 1229.50390625 C167.86201172 1229.85050293 167.27871094 1230.19709961 166.67773438 1230.55419922 C151.82572657 1239.23145625 135.34900176 1245.29079313 118.4453125 1248.50390625 C117.10617798 1248.77750977 117.10617798 1248.77750977 115.73999023 1249.05664062 C102.52397463 1251.37669352 89.07799306 1250.57370069 75.7175293 1250.31201172 C72.40150874 1250.25137755 69.08593094 1250.2160236 65.76953125 1250.18359375 C64.76621262 1250.1566745 63.76289398 1250.12975525 62.72917175 1250.10202026 C54.84612838 1250.04625038 49.35350215 1252.10569896 42.6953125 1256.19140625 C38.61038896 1260.38979988 35.9099624 1265.04126179 34.8203125 1270.81640625 C36.76736675 1282.3040263 43.69517496 1292.65806153 49.43139648 1302.64135742 C63.77474273 1327.68598798 67.30785626 1349.49992378 62.84228516 1377.94726562 C62.50248009 1380.1357273 62.19329416 1382.32522736 61.89453125 1384.51953125 C58.61413949 1405.49618605 49.67147988 1425.74394295 42.45266724 1445.62854004 C38.88798263 1455.4571513 35.49239456 1465.27371517 32.5703125 1475.31640625 C27.05297262 1494.10819947 19.63106987 1512.30147794 12.4453125 1530.50390625 C11.98979004 1531.65922852 11.53426758 1532.81455078 11.06494141 1534.00488281 C1.96592255 1556.80402036 -10.12523512 1578.23738391 -22.65380859 1599.29785156 C-24.71401911 1602.77263766 -26.75595736 1606.25767888 -28.79296875 1609.74609375 C-35.05610477 1620.46834648 -41.33176716 1631.18125711 -47.7421875 1641.81640625 C-52.15563668 1649.148046 -56.53152104 1656.50096952 -60.8671875 1663.87890625 C-61.71156372 1665.30456909 -61.71156372 1665.30456909 -62.57299805 1666.7590332 C-66.94069572 1674.21866709 -70.66415614 1681.72284352 -74.5546875 1689.50390625 C1337.1853125 1689.99890625 1337.1853125 1689.99890625 2777.4453125 1690.50390625 C2777.4453125 1709.97390625 2777.4453125 1729.44390625 2777.4453125 1749.50390625 C1621.4553125 1749.50390625 465.4653125 1749.50390625 -725.5546875 1749.50390625 C-715.1411058 1727.51967822 -715.1411058 1727.51967822 -711.5546875 1720.15234375 C-710.94475952 1718.89775864 -710.94475952 1718.89775864 -710.32250977 1717.61782837 C-709.48652896 1715.89925965 -708.65003013 1714.18094281 -707.81298828 1712.46289062 C-706.52541693 1709.81879766 -705.24120814 1707.17308671 -703.95703125 1704.52734375 C-703.13561793 1702.83974577 -702.31401124 1701.1522419 -701.4921875 1699.46484375 C-701.10998047 1698.67653168 -700.72777344 1697.8882196 -700.33398438 1697.07601929 C-697.66913886 1691.61835761 -697.66913886 1691.61835761 -696.5546875 1690.50390625 C-694.25112317 1690.40678683 -691.94451092 1690.38204055 -689.63890076 1690.38365173 C-688.90709046 1690.38279731 -688.17528016 1690.38194288 -687.4212938 1690.38106257 C-684.95067871 1690.37940559 -682.4801304 1690.38493266 -680.00952148 1690.39038086 C-678.24584963 1690.39066271 -676.48217765 1690.39050504 -674.71850586 1690.38993835 C-669.91498907 1690.3896503 -665.11149703 1690.39554833 -660.30798602 1690.40251231 C-655.29379065 1690.40874451 -650.27959477 1690.40934954 -645.26539612 1690.41053772 C-635.7633199 1690.41365143 -626.26125512 1690.42186536 -616.75918394 1690.43188721 C-605.94437411 1690.44304711 -595.12956375 1690.44855849 -584.3147496 1690.45358264 C-562.06138917 1690.46404794 -539.80803905 1690.48164815 -517.5546875 1690.50390625 C-517.35195001 1689.81847307 -517.14921251 1689.13303989 -516.94033146 1688.42683601 C-516.67264674 1687.52705465 -516.40496202 1686.62727329 -516.12916565 1685.70022583 C-515.86455316 1684.80854265 -515.59994066 1683.91685947 -515.32730961 1682.99815559 C-514.44420569 1680.14723875 -513.38924772 1677.42353958 -512.20703125 1674.68359375 C-511.77181152 1673.66668457 -511.3365918 1672.64977539 -510.88818359 1671.60205078 C-510.42750488 1670.53841309 -509.96682617 1669.47477539 -509.4921875 1668.37890625 C-508.5037152 1666.06127939 -507.51543812 1663.74356926 -506.52734375 1661.42578125 C-505.09563522 1658.08466423 -503.65977921 1654.745621 -502.21044922 1651.41210938 C-491.45428253 1626.67006423 -484.11055219 1601.17612638 -476.9284668 1575.23071289 C-471.35660611 1555.10735139 -465.3980139 1535.37996725 -457.84277344 1515.89477539 C-454.18366755 1506.37591613 -450.87373005 1496.77123135 -447.7421875 1487.06640625 C-447.50786011 1486.3403418 -447.27353271 1485.61427734 -447.03210449 1484.86621094 C-444.2818212 1476.30360164 -441.73611583 1467.71472262 -439.4921875 1459.00390625 C-428.22605238 1415.70251184 -404.66424641 1373.46504085 -382.76806641 1334.67919922 C-381.57661836 1332.54322295 -380.42570312 1330.39007921 -379.28515625 1328.2265625 C-373.26747655 1316.91987627 -366.30727837 1306.30309792 -359.15405273 1295.69116211 C-350.92137982 1283.70479047 -350.92137982 1283.70479047 -348.0234375 1269.7421875 C-349.42234225 1263.84827262 -354.14416771 1259.68162153 -358.3671875 1255.62890625 C-362.40580327 1251.67813953 -366.24961923 1247.66811266 -369.9140625 1243.36328125 C-371.71616539 1241.32089797 -373.61407697 1239.41488914 -375.5546875 1237.50390625 C-378.65714752 1234.44273372 -381.53575174 1231.27248357 -384.375 1227.96875 C-387.36812657 1224.58404953 -390.46311904 1221.29857045 -393.5546875 1218.00390625 C-398.32026178 1212.91666807 -403.02646173 1207.80476666 -407.5546875 1202.50390625 C-408.40933594 1201.51648437 -409.26398437 1200.5290625 -410.14453125 1199.51171875 C-413.30135143 1195.85944066 -416.43174334 1192.18516746 -419.5546875 1188.50390625 C-420.12703125 1187.83117676 -420.699375 1187.15844727 -421.2890625 1186.46533203 C-427.68215694 1178.92480443 -433.9021992 1171.30805234 -439.5546875 1163.19140625 C-439.97500244 1162.59473145 -440.39531738 1161.99805664 -440.82836914 1161.38330078 C-448.6960251 1149.80188566 -453.28105181 1136.74283971 -458.0546875 1123.69140625 C-458.76137477 1121.77298523 -459.4684123 1119.85469321 -460.17578125 1117.93652344 C-461.9725809 1113.05589924 -463.75902107 1108.17156466 -465.54052734 1103.28533936 C-466.49305357 1100.6729433 -467.44750652 1098.06125909 -468.40234375 1095.44970703 C-475.15351833 1076.96243614 -481.68286952 1058.3999541 -488.05932617 1039.78015137 C-488.75186329 1037.75808042 -489.44581904 1035.73649465 -490.14135742 1033.7154541 C-492.33594939 1027.32964814 -494.48196379 1020.93035255 -496.5546875 1014.50390625 C-496.80982117 1013.71647034 -497.06495483 1012.92903442 -497.32781982 1012.11773682 C-502.93605523 994.4933942 -503.70481989 976.66841704 -504.44552612 958.29992676 C-505.09795092 926.48072112 -505.09795092 926.48072112 -511.5546875 895.50390625 C-515.6627034 896.00126176 -517.41136448 896.8940246 -520.03125 900.08203125 C-520.6284082 900.80841797 -521.22556641 901.53480469 -521.84082031 902.28320312 C-524.34268055 905.52492972 -526.68428512 908.83001126 -528.9296875 912.25390625 C-529.66856201 913.3672937 -529.66856201 913.3672937 -530.42236328 914.50317383 C-533.69107405 919.48897954 -536.82036719 924.5515744 -539.8984375 929.65625 C-540.27279938 930.27668182 -540.64716125 930.89711365 -541.03286743 931.53634644 C-542.89768373 934.63216662 -544.75181037 937.73379655 -546.59130859 940.84472656 C-558.11243811 960.21338542 -574.93693573 971.46131834 -596.5546875 977.50390625 C-601.7043411 978.60477809 -606.88552643 979.50181074 -612.07421875 980.39453125 C-613.6015886 980.66235201 -615.12886424 980.9307105 -616.65605164 981.1995697 C-620.72009455 981.91296265 -624.78566153 982.61725637 -628.85171509 983.31908798 C-631.37201761 983.75474117 -633.89188548 984.19282493 -636.41162109 984.63174438 C-656.2747757 988.09126341 -676.14511097 991.50813281 -696.0546875 994.69140625 C-696.89987946 994.82752319 -697.74507141 994.96364014 -698.61587524 995.10388184 C-714.45513432 997.64249234 -730.23091922 999.86517375 -746.3046875 999.81640625 C-747.41328125 999.83251953 -748.521875 999.84863281 -749.6640625 999.86523438 C-759.87552226 999.87137107 -759.87552226 999.87137107 -764.5546875 996.50390625 C-765.953125 994.76953125 -765.953125 994.76953125 -766.9296875 992.75390625 C-767.32929687 991.96886719 -767.72890625 991.18382812 -768.140625 990.375 C-768.60726563 989.42753906 -769.07390625 988.48007813 -769.5546875 987.50390625 C-770.52934792 985.59879359 -771.51536318 983.70029421 -772.51025391 981.80566406 C-773.1899562 980.51108382 -773.86194174 979.21241276 -774.52490234 977.90917969 C-777.83349705 971.56589715 -781.49162935 965.90268072 -788.5546875 963.50390625 C-796.97888535 962.01196423 -803.62003929 964.8161898 -810.5546875 969.50390625 C-818.92075618 976.59197471 -825.66209253 985.06411779 -832.24755859 993.78222656 C-833.49748458 995.42856165 -834.76564526 997.0584616 -836.04296875 998.68359375 C-842.86161176 1007.40536678 -849.22404686 1016.42420921 -855.5546875 1025.50390625 C-890.60631907 1075.74559151 -890.60631907 1075.74559151 -902.6796875 1080.81640625 C-912.85755231 1082.62215646 -923.81188206 1082.71815965 -932.8046875 1077.09765625 C-938.27768833 1072.83193501 -941.0989325 1068.25764648 -942.5546875 1061.50390625 C-942.71009974 1058.72101213 -942.79240687 1056.01508206 -942.7734375 1053.234375 C-942.76965088 1052.44296112 -942.76586426 1051.65154724 -942.76196289 1050.83615112 C-942.64870663 1042.50985239 -941.67733229 1034.36956481 -940.5546875 1026.12890625 C-940.33660019 1024.4622028 -940.11951505 1022.79536797 -939.90332031 1021.12841797 C-939.28128505 1016.36085153 -938.64310751 1011.59556209 -938.00170898 1006.83056641 C-937.06323169 999.84657318 -936.13587583 992.86108762 -935.20567322 985.87598801 C-934.22055178 978.47991519 -933.23222017 971.0843095 -932.234375 963.68994141 C-932.06464172 962.42815063 -931.89490845 961.16635986 -931.72003174 959.86633301 C-931.40138681 957.49838936 -931.08145172 955.13061881 -930.75994873 952.76306152 C-926.97742649 933.87320313 -926.97742649 933.87320313 -931.10546875 916.15234375 C-938.22947435 908.0490274 -947.16805147 901.38538451 -958.15625 900.23046875 C-975.66715509 899.64224713 -991.16884061 907.2097097 -1006.78857422 914.25927734 C-1017.55461185 919.10351916 -1028.35813126 923.50482879 -1039.5546875 927.25390625 C-1048.34667286 930.19968987 -1056.74768025 933.71407203 -1065.1796875 937.56640625 C-1110.69027506 958.28417781 -1110.69027506 958.28417781 -1128.6796875 951.94140625 C-1134.06326935 949.51751869 -1139.99624232 946.30310096 -1142.33984375 940.58984375 C-1143.50145001 933.88724211 -1141.83454712 927.13291577 -1138.2421875 921.44140625 C-1133.53061791 914.84751841 -1128.26851952 908.64012092 -1123.11181641 902.39306641 C-1121.03854489 899.877705 -1118.98534945 897.34616681 -1116.9296875 894.81640625 C-1113.21672877 890.28061234 -1109.43546938 885.80586545 -1105.64013672 881.33911133 C-1102.74177808 877.92293556 -1099.88295271 874.47863207 -1097.0546875 871.00390625 C-1092.43047689 865.32649465 -1087.7029194 859.7409062 -1082.96191406 854.16113281 C-1080.65573306 851.44524859 -1078.35551158 848.72432852 -1076.0546875 846.00390625 C-1075.13673332 844.9192585 -1074.21876457 843.83462309 -1073.30078125 842.75 C-1071.47924118 840.59738839 -1069.65903421 838.44366006 -1067.83984375 836.2890625 C-1063.06060424 830.63119799 -1058.2602024 824.99307882 -1053.4296875 819.37890625 C-1049.93653644 815.3176188 -1046.49020354 811.22872038 -1043.1171875 807.06640625 C-1037.96281958 800.72113744 -1032.58105985 794.57881177 -1027.21435547 788.41357422 C-1024.56808143 785.3686852 -1021.93349203 782.31388366 -1019.3046875 779.25390625 C-1018.80461182 778.67278076 -1018.30453613 778.09165527 -1017.78930664 777.49291992 C-1014.8421902 774.05372419 -1011.9929643 770.55424081 -1009.1796875 767.00390625 C-1005.46459919 762.43984895 -1001.49220513 758.19474289 -997.3671875 754.00390625 C-996.78469238 753.40384766 -996.20219727 752.80378906 -995.60205078 752.18554688 C-991.30941737 747.8990231 -987.37610732 744.98301528 -981.2421875 743.94140625 C-976.13719066 744.72013458 -972.41077575 747.10293571 -968.5546875 750.50390625 C-968.2246875 751.49390625 -967.8946875 752.48390625 -967.5546875 753.50390625 C-966.8946875 753.50390625 -966.2346875 753.50390625 -965.5546875 753.50390625 C-964.35546875 754.7265625 -964.35546875 754.7265625 -962.8671875 756.56640625 C-958.58187257 761.62758872 -953.88141388 766.23296813 -949.1496582 770.87133789 C-945.36245928 774.6082708 -941.79245386 778.45731641 -938.31835938 782.48632812 C-935.32353057 785.91230615 -932.18362239 789.20078324 -929.0546875 792.50390625 C-925.24098765 796.52991516 -921.48127536 800.56838565 -917.8828125 804.7890625 C-915.40744929 807.63865714 -913.02743761 809.92433038 -909.8046875 811.94140625 C-909.06734375 812.41449219 -908.33 812.88757813 -907.5703125 813.375 C-902.22805277 816.36707958 -896.50157622 816.15627857 -890.5546875 815.50390625 C-888.35903782 814.72726758 -886.19038236 813.87030486 -884.0546875 812.94140625 C-869.3752687 806.87553071 -852.20562059 814.71864205 -838.27923584 820.42707825 C-829.55590238 823.95576313 -820.95278607 826.55403734 -811.7265625 828.42578125 C-809.86509331 828.80630646 -809.86509331 828.80630646 -807.96601868 829.19451904 C-792.15731047 832.34883773 -776.1715345 834.36446959 -760.19244385 836.43493652 C-756.07709208 836.97066522 -751.96346065 837.51929706 -747.84960938 838.06640625 C-740.4462411 839.04846454 -733.0423789 840.02639701 -725.63485718 840.97668457 C-722.81105266 841.33902784 -719.98931742 841.71445748 -717.16812134 842.09655762 C-715.74010776 842.28551986 -714.3120789 842.47436657 -712.8840332 842.66308594 C-711.61960892 842.83346375 -710.35518463 843.00384155 -709.05244446 843.17938232 C-704.44083931 843.60724973 -700.10410287 843.31317725 -695.5546875 842.50390625 C-695.33425781 841.73691406 -695.11382813 840.96992187 -694.88671875 840.1796875 C-693.4333891 836.16917958 -691.62273246 832.47416742 -689.72045898 828.66137695 C-673.81813857 796.71228895 -669.81711218 761.05882911 -680.80859375 726.71044922 C-684.1702855 716.76837787 -688.40505353 708.20085528 -694.70605469 699.80273438 C-697.96746446 695.43597247 -700.80786002 690.93434903 -703.4921875 686.19140625 C-704.04011963 685.24104492 -704.04011963 685.24104492 -704.59912109 684.27148438 C-710.1569288 674.27210311 -711.99127966 663.30718729 -714.1171875 652.19140625 C-714.271875 651.38545013 -714.4265625 650.57949402 -714.5859375 649.74911499 C-722.06768277 610.52694217 -722.37464137 572.54381033 -699.52612305 538.31738281 C-687.42995076 520.60176192 -672.87395758 504.42968338 -656.5546875 490.50390625 C-655.595625 489.67890625 -654.6365625 488.85390625 -653.6484375 488.00390625 C-647.98904848 483.15849702 -642.254115 478.44558893 -636.3671875 473.87890625 C-631.37447961 470.00411148 -626.62988688 465.95704614 -621.97265625 461.6796875 C-618.54167089 458.59235495 -614.9647556 455.70058383 -611.375 452.80078125 C-608.56540138 450.51263168 -605.81224131 448.16685602 -603.0546875 445.81640625 C-597.2754419 440.98921141 -591.25917648 436.53640641 -585.17773438 432.09887695 C-579.07688542 427.64327456 -573.05147188 423.0984492 -567.0546875 418.50390625 C-560.29391714 413.32667795 -553.48836534 408.22114733 -546.6171875 403.19140625 C-531.66430819 392.48495204 -531.66430819 392.48495204 -518.125 380.11328125 C-516.35310793 378.29731227 -514.47879586 376.65732256 -512.5546875 375.00390625 C-509.94821141 372.75832685 -507.46534229 370.45839113 -505.0546875 368.00390625 C-502.74449309 365.65218025 -500.37686562 363.4535136 -497.8671875 361.31640625 C-493.73525926 357.76214565 -489.92037735 353.9307188 -486.1184082 350.03051758 C-483.43346778 347.29819317 -480.68072582 344.71834443 -477.7734375 342.22265625 C-472.95679371 338.0561678 -468.51979091 333.54068067 -464.0546875 329.00390625 C-462.44264337 327.36598661 -460.82808889 325.73053359 -459.2109375 324.09765625 C-458.50775391 323.38287109 -457.80457031 322.66808594 -457.08007812 321.93164062 C-455.04340279 319.97372303 -452.97800676 318.12472313 -450.83959961 316.28222656 C-446.14268481 312.20129275 -441.74121161 307.85231793 -437.33984375 303.45703125 C-436.4846666 302.6051825 -435.62948944 301.75333374 -434.74839783 300.87567139 C-432.94952748 299.08183713 -431.15198624 297.28666915 -429.35571289 295.49023438 C-426.63383718 292.77054257 -423.90406286 290.05895322 -421.17382812 287.34765625 C-419.41617593 285.59293934 -417.65899895 283.83774625 -415.90234375 282.08203125 C-415.09894058 281.2858136 -414.29553741 280.48959595 -413.4677887 279.66925049 C-408.47924041 274.66088127 -403.91797656 269.43888031 -399.50608826 263.91522217 C-386.32762211 247.63079413 -367.18734307 236.85935148 -348.9296875 227.25390625 C-348.0126001 226.77058838 -347.0955127 226.28727051 -346.15063477 225.78930664 C-334.20266156 219.61609908 -321.94116324 214.82659138 -309.1796875 210.62890625 C-291.41067702 204.66091888 -275.89581589 197.19035391 -261.29589844 185.22509766 C-252.85431129 178.33974246 -244.84829503 173.39305961 -233.5546875 174.50390625 C-231.60340922 174.97598971 -229.65153016 175.44931498 -227.71875 175.9921875 C-223.72602778 176.93631496 -219.63757913 177.18597616 -215.5546875 177.50390625 C-215.6990625 176.53710938 -215.8434375 175.5703125 -215.9921875 174.57421875 C-219.6493725 148.92312955 -219.6493725 148.92312955 -211.49609375 137.66015625 C-204.83052369 130.01666951 -198.51603983 126.18029241 -188.8671875 123.44140625 C-187.17322236 122.95942523 -185.48167038 122.46886038 -183.79296875 121.96875 C-183.05087158 121.75855225 -182.30877441 121.54835449 -181.54418945 121.33178711 C-178.52690997 120.07622266 -177.02072716 118.56383122 -175.70654297 115.57495117 C-173.2528466 107.10143496 -171.80379107 98.44390077 -170.33056641 89.75805664 C-166.01399499 64.49377217 -156.41858404 44.42697511 -135.265625 29.07421875 C-96.90601047 2.13190849 -45.85583129 -21.42471828 0 0 Z " fill="#FEFEFE" transform="translate(1143.5546875,48.49609375)"/>
<path d="M0 0 C265.53129968 0 265.53129968 0 285.75 4.3125 C286.8009082 4.53196289 287.85181641 4.75142578 288.93457031 4.97753906 C320.46966081 11.72471637 348.95651175 24.92981023 372.765625 46.95703125 C374.64950698 48.67953173 376.57134631 50.28116367 378.5625 51.875 C383.37628104 55.97855105 387.12660392 61.03109796 391 66 C391.74507812 66.94101563 392.49015625 67.88203125 393.2578125 68.8515625 C422.40226314 106.52609625 430.6079318 151.28620586 433.0625 197.75 C433.12321182 198.89447601 433.12321182 198.89447601 433.18515015 200.06207275 C434.75422286 230.22372167 435.23045325 260.40399147 435.52447405 290.59983329 C435.55479929 293.70225937 435.58619261 296.80467338 435.61772132 299.90708745 C436.07930994 345.81083294 436.14903635 391.71315844 436.13530041 437.61886561 C436.13296191 445.65014241 436.13275184 453.68141711 436.13381577 461.71269417 C436.133969 462.88311714 436.13412223 464.05354012 436.13428011 465.25943046 C436.13460002 467.6414028 436.13492424 470.02337514 436.1352527 472.40534747 C436.13805931 494.3927527 436.13489655 516.38015366 436.12945233 538.36755819 C436.12497497 557.02555848 436.12577742 575.68355255 436.13037109 594.34155273 C436.13578008 616.31956603 436.13779913 638.29757566 436.13475883 660.27558953 C436.13444046 662.63874916 436.13412609 665.0019088 436.13381577 667.36506844 C436.13366149 668.52610149 436.13350721 669.68713454 436.13334826 670.88335041 C436.13250287 678.86921471 436.13392668 686.85507655 436.13629532 694.84094048 C436.15790036 776.39580082 436.15790036 776.39580082 435.7275846 815.8173486 C435.69515812 818.7933463 435.66791602 821.76930148 435.64625382 824.74539649 C435.5256465 840.5614472 434.91132597 856.26170095 433.5942688 872.02073669 C433.53302979 872.75831579 433.47179078 873.49589489 433.40869604 874.25582487 C428.68063882 930.17770413 415.09983426 983.98847596 376 1026 C375.37609375 1026.67804688 374.7521875 1027.35609375 374.109375 1028.0546875 C336.52117853 1067.38015355 282.51004736 1073.30352209 231.1796875 1074.5390625 C230.28817427 1074.56062283 229.39666103 1074.58218315 228.47813225 1074.60439682 C206.88631279 1075.11189644 185.29676789 1075.15256011 163.69995117 1075.13037109 C159.37702034 1075.1259493 155.05413168 1075.12567554 150.73120117 1075.13037109 C100.48148103 1075.18072346 50.25096423 1074.5075855 0 1074 C0 719.58 0 365.16 0 0 Z M143 135 C143 399.99 143 664.98 143 938 C168.83344696 938.89324447 168.83344696 938.89324447 194.63085938 938.81298828 C197.42831154 938.7487763 200.22554616 938.708049 203.0234375 938.66796875 C226.58523461 938.21984969 250.87203356 934.66125707 268.75 917.9375 C297.32502742 887.75667133 292.31113332 838.44080925 292.24679029 800.02208984 C292.24011305 794.69501707 292.24518506 789.36795233 292.24867249 784.0408783 C292.25368785 773.60528826 292.24809521 763.16973024 292.23882218 752.73414417 C292.22828524 740.4124079 292.22851287 728.09067803 292.22899476 715.7689381 C292.22951011 692.9220706 292.21950759 670.07521753 292.20449232 647.22835565 C292.19109243 626.76706331 292.18471264 606.30577992 292.18530273 585.84448242 C292.18535507 583.2515589 292.18540526 580.65863538 292.1854533 578.06571186 C292.18547708 576.7842808 292.18550086 575.50284975 292.18552537 574.18258745 C292.18554694 572.90266332 292.18556852 571.62273918 292.18559074 570.30402946 C292.1856125 569.02586129 292.18563425 567.74769311 292.18565666 566.43079256 C292.18616189 503.6204395 292.13586187 440.8102148 292 378 C291.99764914 376.91267771 291.99529827 375.82535542 291.99287617 374.70508397 C291.93299045 347.32385265 291.84495757 319.94290045 291.71096243 292.56192954 C291.68263524 286.65273553 291.66128277 280.74354392 291.64317894 274.83431053 C291.62153598 267.83142388 291.58954226 260.82868056 291.5436414 253.82590909 C291.52100794 250.34711741 291.50238085 246.86846142 291.49666047 243.38959718 C291.42454198 212.72608472 289.76759509 176.39381578 267 153 C264.48955702 150.66554684 261.93008192 148.77612951 259 147 C258.25878906 146.54882812 257.51757812 146.09765625 256.75390625 145.6328125 C247.79673205 140.90968476 237.91567282 140.09461041 228 139 C226.7639502 138.85933105 226.7639502 138.85933105 225.50292969 138.71582031 C210.3471227 137.06235102 195.09878797 136.53191939 179.875 135.875 C178.85135345 135.83043671 177.82770691 135.78587341 176.77304077 135.73995972 C173.78374238 135.61163783 170.79428248 135.48838624 167.8046875 135.3671875 C166.92499802 135.32979965 166.04530853 135.2924118 165.13896179 135.25389099 C157.74250041 134.96539781 150.42118663 135 143 135 Z " fill="#FEFEFE" transform="translate(3125,23)"/>
<path d="M0 0 C10.86352271 9.83593757 20.52967922 20.16503924 28.57958984 32.43017578 C28.97194824 33.02620605 29.36430664 33.62223633 29.76855469 34.23632812 C45.89269409 59.1075938 55.55520466 87.31097222 59.12130737 116.67987061 C59.2485261 117.71876836 59.37574482 118.75766611 59.50681865 119.82804561 C60.78638776 130.63393863 61.59564939 141.44898541 62.22460938 152.31005859 C62.31843128 153.89331051 62.31843128 153.89331051 62.41414857 155.50854731 C63.91958415 181.42459387 64.14028461 207.33502858 64.24188471 233.28827763 C64.25887806 237.45646539 64.28260587 241.62460087 64.30758286 245.7927475 C64.76910701 323.26016249 64.73195828 400.73040477 64.70905384 478.19887358 C64.70460112 493.50660846 64.70540259 508.81433557 64.70996094 524.12207031 C64.73343565 605.59656475 64.70324221 687.07080522 64.23819835 768.54420985 C64.20565305 774.29573813 64.17734126 780.04727657 64.15088272 785.79883575 C64.11890055 792.70147039 64.07978114 799.60402311 64.03172854 806.50656527 C64.00765825 809.97366276 63.98600283 813.44071442 63.97242308 816.90787029 C63.87323998 839.48725747 63.20983718 862.19256937 59.82958984 884.55517578 C59.57580566 886.26290161 59.57580566 886.26290161 59.31689453 888.00512695 C51.05035339 941.20538482 29.11846208 990.86984146 -15.14306641 1023.39892578 C-48.26348306 1047.152625 -88.2835557 1058.23642853 -128.42041016 1062.43017578 C-129.29697266 1062.52443848 -130.17353516 1062.61870117 -131.07666016 1062.71582031 C-140.22412126 1063.59502092 -149.36352013 1063.67347135 -158.54541016 1063.68017578 C-159.79913422 1063.6811879 -159.79913422 1063.6811879 -161.07818604 1063.68222046 C-221.28466913 1063.60546856 -279.964899 1044.6710094 -323.73291016 1002.36767578 C-336.57692947 989.08734159 -346.87800702 973.74176502 -355.42041016 957.43017578 C-356.31179687 955.74794922 -356.31179687 955.74794922 -357.22119141 954.03173828 C-373.82034233 920.68080057 -379.20617313 883.75284201 -379.98945618 846.92860413 C-380.00978416 846.02203711 -380.03011214 845.1154701 -380.05105612 844.18143136 C-380.6191291 818.2476801 -380.57084482 792.30800133 -380.56613608 766.36942755 C-380.5649479 758.7272537 -380.5696787 751.08508574 -380.57440676 743.44291366 C-380.5839775 727.61680019 -380.58688698 711.79069 -380.58746382 695.96457397 C-380.58792651 683.73858468 -380.59000099 671.51259663 -380.59316444 659.28660774 C-380.59406219 655.7451393 -380.59495201 652.20367086 -380.59583932 648.66220242 C-380.59606037 647.78140501 -380.59628142 646.9006076 -380.59650916 645.99311936 C-380.60264484 621.29135693 -380.60661156 596.58959492 -380.60616589 571.88783169 C-380.60615031 570.96042867 -380.60613473 570.03302566 -380.60611868 569.07751953 C-380.60603559 564.37883046 -380.60593655 559.6801414 -380.60583397 554.98145234 C-380.60581402 554.04854403 -380.60579408 553.11563573 -380.60577353 552.15445748 C-380.60573309 550.26790598 -380.60569129 548.38135448 -380.60564814 546.49480299 C-380.60503485 517.11705447 -380.61255956 487.73931748 -380.6262207 458.36157227 C-380.64161883 425.23615348 -380.6501849 392.11074226 -380.64925748 358.98531967 C-380.64918287 355.44668043 -380.64913415 351.90804118 -380.64910316 348.36940193 C-380.64909151 347.49831012 -380.64907986 346.62721832 -380.64906785 345.72972979 C-380.64903725 331.79223632 -380.65538599 317.85475299 -380.66403543 303.91726253 C-380.67255805 289.89355983 -380.67346585 275.86987178 -380.66692611 261.84616791 C-380.66358205 254.26917264 -380.66332345 246.69221074 -380.67227936 239.11521912 C-380.83893026 90.69994887 -380.83893026 90.69994887 -343.42041016 38.43017578 C-342.74623047 37.47369141 -342.07205078 36.51720703 -341.37744141 35.53173828 C-335.89506879 27.98255971 -329.84221006 21.17165533 -323.42041016 14.43017578 C-322.71529297 13.66060547 -322.01017578 12.89103516 -321.28369141 12.09814453 C-290.48158731 -20.4640798 -242.28618201 -36.16718971 -199.42041016 -43.56982422 C-198.46666504 -43.73498535 -197.51291992 -43.90014648 -196.53027344 -44.0703125 C-131.60533191 -54.68800546 -50.87082101 -44.80031731 0 0 Z M-213.25244141 114.42236328 C-228.70663443 133.42408874 -234.26740616 161.66682768 -235.01794243 185.44464684 C-235.05697349 186.57141959 -235.09600454 187.69819234 -235.13621836 188.85910972 C-235.53361597 201.30510731 -235.55969436 213.74752569 -235.5473938 226.19863892 C-235.54854929 228.79022378 -235.55013966 231.38180848 -235.55212104 233.97339284 C-235.55569306 239.55589946 -235.55564802 245.13839636 -235.55307388 250.7209034 C-235.54925638 259.02285967 -235.55124308 267.3248079 -235.55428219 275.62676414 C-235.55952182 290.46238636 -235.55910205 305.29800424 -235.55620328 320.13362687 C-235.55367933 333.11594432 -235.55303492 346.0982602 -235.55422592 359.08057785 C-235.55430231 359.94454706 -235.55437869 360.80851626 -235.55445739 361.69866636 C-235.55476877 365.20651836 -235.55508718 368.71437036 -235.55541716 372.22222236 C-235.55847018 405.06979807 -235.5557121 437.91737104 -235.55032026 470.76494632 C-235.54557447 499.89814928 -235.54600068 529.03134786 -235.55078125 558.16455078 C-235.55614461 590.95830711 -235.55825443 623.75206102 -235.55516899 656.54581773 C-235.55484831 660.0463469 -235.55453546 663.54687607 -235.55422592 667.04740524 C-235.55414684 667.90921343 -235.55406777 668.77102162 -235.55398629 669.65894521 C-235.5528525 682.62913334 -235.55417218 695.59931971 -235.55670547 708.5695076 C-235.55957363 723.32698858 -235.55883098 738.08446458 -235.55342473 752.84194495 C-235.55050421 761.08430111 -235.55027379 769.32664648 -235.55407091 777.56900235 C-235.55660097 783.74619323 -235.5538263 789.9233716 -235.54909633 796.10056095 C-235.54798895 798.58202462 -235.54852549 801.06348975 -235.55097212 803.54495247 C-235.56186436 815.52079404 -235.46900626 827.48209012 -235.02184868 839.45061302 C-234.98938789 840.40815752 -234.95692711 841.36570201 -234.92348266 842.35226301 C-233.93635965 865.50622947 -225.86327766 887.97167297 -210.42041016 905.43017578 C-209.64310547 906.34863281 -209.64310547 906.34863281 -208.85009766 907.28564453 C-199.0074581 918.09276384 -182.94921315 926.60562692 -168.3059082 927.56933594 C-145.05950167 928.51361218 -125.4962278 922.33586689 -107.42041016 907.43017578 C-106.79005859 906.91326172 -106.15970703 906.39634766 -105.51025391 905.86376953 C-89.29479245 891.12579887 -82.2838425 867.16957005 -81.00916505 845.93972373 C-80.76107489 839.98637346 -80.71582358 834.03290106 -80.67849731 828.07516479 C-80.65084134 825.80489568 -80.62192314 823.53464166 -80.59185421 821.26440322 C-80.50389555 813.98644471 -80.45861057 806.70854257 -80.42041016 799.43017578 C-80.41335231 798.23228638 -80.40629447 797.03439699 -80.39902276 795.80020791 C-80.29773111 778.38939266 -80.28055662 760.97879015 -80.28873871 743.56775283 C-80.2920441 736.12873347 -80.28929069 728.6897186 -80.28653812 721.25069944 C-80.28134085 706.6965982 -80.28170024 692.14250142 -80.28461703 677.58839978 C-80.28715217 664.87406613 -80.28778024 652.15973409 -80.28659439 639.44540024 C-80.28651801 638.59563048 -80.28644162 637.74586073 -80.28636292 636.87034037 C-80.2860515 633.4195797 -80.28573309 629.96881903 -80.28540316 626.51805836 C-80.28236127 594.31895378 -80.28509215 562.11985201 -80.29050005 529.92074787 C-80.29526021 501.36073797 -80.29480536 472.80073252 -80.29003906 444.24072266 C-80.28468222 412.03577795 -80.2825609 379.8308357 -80.28565133 347.62589061 C-80.28597199 344.19391116 -80.28628484 340.7619317 -80.28659439 337.32995224 C-80.28667347 336.48511033 -80.28675255 335.64026843 -80.28683402 334.76982525 C-80.28796895 322.04217861 -80.28664631 309.31453376 -80.28411484 296.58688736 C-80.28125491 282.13717221 -80.28197269 267.68746214 -80.28739558 253.23774762 C-80.29032673 245.16201119 -80.29053078 237.08628578 -80.28674941 229.01054963 C-80.28423605 222.97624619 -80.28697079 216.94195697 -80.29172398 210.90765439 C-80.29283887 208.47156001 -80.29227761 206.03546415 -80.28984819 203.59937073 C-80.25975861 170.91615035 -83.46152176 136.93014503 -106.42041016 111.43017578 C-107.01208984 110.73408203 -107.60376953 110.03798828 -108.21337891 109.32080078 C-118.45342253 98.05456942 -134.41640465 91.32088224 -149.47705078 90.28930664 C-175.06283416 89.19206593 -195.63058571 95.26000421 -213.25244141 114.42236328 Z " fill="#FEFEFE" transform="translate(2954.42041015625,51.56982421875)"/>
<path d="M0 0 C0.66370605 0.32226562 1.32741211 0.64453125 2.01123047 0.9765625 C43.66310303 21.4641619 72.2005162 58.75343882 87.07275391 102.11376953 C102.75371228 150.9237458 100.47201237 204.64905404 100.53574736 255.3170203 C100.54667044 263.5994536 100.57420473 271.88181491 100.60155091 280.16420734 C100.65732541 297.28034771 100.69256195 314.39649199 100.72073728 331.51269722 C100.74099986 343.76336435 100.76601802 356.01401113 100.79513995 368.2646604 C101.02496841 464.95818538 101.06401634 561.65163444 100.73112142 701.86486381 C100.70651061 710.7214334 100.68274986 719.57800314 100.66160583 728.43458176 C100.61718283 747.00741467 100.56778843 765.58020098 100.49908406 784.15296221 C100.49325969 785.73056187 100.48744173 787.30816155 100.48163033 788.88576126 C100.47878091 789.65836285 100.4759315 790.43096443 100.47299574 791.22697818 C100.4539163 796.5192464 100.43941191 801.81151403 100.4270153 807.10380173 C100.2329764 887.53664153 98.76102006 971.370544 38.76269531 1032.26025391 C3.78668097 1066.78090185 -44.50336676 1080.19292988 -92 1086 C-93.25586914 1086.15686279 -93.25586914 1086.15686279 -94.53710938 1086.31689453 C-142.21938339 1091.47847299 -191.82115901 1083.92039751 -235 1063 C-236.06661865 1062.48614746 -236.06661865 1062.48614746 -237.15478516 1061.96191406 C-274.62894132 1043.66395294 -304.66137355 1012.86456444 -322 975 C-322.49862549 973.92588867 -322.49862549 973.92588867 -323.00732422 972.83007812 C-332.206802 952.80172727 -337.78576938 931.76602347 -341 910 C-341.11182617 909.25153809 -341.22365234 908.50307617 -341.33886719 907.73193359 C-344.68886908 884.3823147 -344.14934459 860.45585878 -344.13371277 836.92576599 C-344.13503809 834.2043258 -344.13785025 831.48288755 -344.14057809 828.76144844 C-344.14567364 822.8980505 -344.14715963 817.03466078 -344.14612198 811.17126083 C-344.14458261 802.45110267 -344.14879029 793.73095346 -344.1539966 785.01079705 C-344.16361725 768.52247671 -344.16647884 752.0341595 -344.16705366 735.54583668 C-344.16751494 722.80459048 -344.16958222 710.06334549 -344.17275429 697.32209969 C-344.17365196 693.641617 -344.17454177 689.96113432 -344.17542917 686.28065163 C-344.17565021 685.36542904 -344.17587126 684.45020644 -344.17609901 683.50724983 C-344.18224442 657.79954127 -344.18620046 632.09183313 -344.18575573 606.3841238 C-344.18574015 605.41687589 -344.18572457 604.44962798 -344.18570852 603.45306952 C-344.18562543 598.55173004 -344.18552639 593.65039056 -344.18542381 588.74905109 C-344.18540387 587.77579479 -344.18538392 586.8025385 -344.18536337 585.79978959 C-344.18532294 583.83163328 -344.18528114 581.86347698 -344.18523798 579.89532067 C-344.18462545 549.28494536 -344.19213141 518.67458113 -344.20581055 488.06420898 C-344.22120723 453.59702484 -344.22977466 419.12984798 -344.22884732 384.66266018 C-344.22877271 380.97997701 -344.22872399 377.29729384 -344.22869301 373.61461067 C-344.22868135 372.70797925 -344.2286697 371.80134782 -344.22865769 370.86724272 C-344.22862706 356.34865421 -344.23498181 341.83007541 -344.24362527 327.31148978 C-344.25214682 312.69436498 -344.2530567 298.07725422 -344.24651595 283.4601283 C-344.24317011 275.55920211 -344.2429196 267.65830794 -344.2518692 259.75738525 C-344.39298631 128.61981375 -344.39298631 128.61981375 -316 77 C-315.67531738 76.39365723 -315.35063477 75.78731445 -315.01611328 75.16259766 C-291.99581232 32.20435559 -251.92014532 4.23536124 -205.94213867 -9.92749023 C-186.27901291 -15.71922103 -166.36636245 -19.72416481 -146 -22 C-144.80298462 -22.14356934 -144.80298462 -22.14356934 -143.58178711 -22.29003906 C-95.87967625 -27.40933474 -43.25559961 -21.14852736 0 0 Z M-169 130 C-169.74765625 130.64453125 -170.4953125 131.2890625 -171.265625 131.953125 C-184.56962545 144.1710846 -190.32458739 161.91211464 -194.75 178.9375 C-194.94875732 179.68660645 -195.14751465 180.43571289 -195.35229492 181.20751953 C-199.53913513 198.25996515 -199.28817129 215.58478024 -199.26069641 233.01731873 C-199.2626165 235.74565884 -199.26753126 238.47399182 -199.27228898 241.20232826 C-199.28100575 247.11135941 -199.28237931 253.02035589 -199.27878571 258.92939186 C-199.27345589 267.71670708 -199.27959676 276.50398902 -199.28786864 285.29130062 C-199.30307548 301.90106766 -199.30481719 318.51081939 -199.30234561 335.12059193 C-199.30051022 347.94850524 -199.30227771 360.77641356 -199.30657005 373.60432625 C-199.30717246 375.44979437 -199.30777366 377.29526249 -199.30837366 379.14073061 C-199.30928094 381.92193251 -199.31018961 384.70313441 -199.31110601 387.48433631 C-199.31953034 413.32779394 -199.32387475 439.1712497 -199.31969929 465.01470852 C-199.31954291 465.98810295 -199.31938654 466.96149738 -199.31922542 467.96438861 C-199.31841968 472.8975203 -199.31757391 477.830652 -199.31671212 482.76378369 C-199.31654103 483.74345548 -199.31636994 484.72312727 -199.31619367 485.73248608 C-199.31584701 487.71361709 -199.31549848 489.6947481 -199.31514808 491.67587911 C-199.30979025 522.50601731 -199.31772521 553.3361269 -199.33618164 584.16625977 C-199.35691084 618.83318338 -199.36762273 653.50008927 -199.36360615 688.16701943 C-199.36321083 691.86529894 -199.36284928 695.56357846 -199.36250877 699.26185799 C-199.36241804 700.17241633 -199.36232731 701.08297468 -199.36223383 702.02112571 C-199.36106938 715.74807908 -199.3677044 729.47501453 -199.37832069 743.20196342 C-199.39038514 758.81696574 -199.39191718 774.43192864 -199.37953053 790.04693156 C-199.37291465 798.77710445 -199.37450362 807.50718299 -199.38811904 816.23734828 C-199.39639182 822.07901118 -199.39362947 827.92060376 -199.38214377 833.76226101 C-199.37591525 837.08378162 -199.37589415 840.40496984 -199.38600711 843.72650271 C-199.47952561 876.74582668 -194.09680918 907.85511216 -170.5625 932.55859375 C-155.61883816 946.75986214 -138.50468147 951.57184288 -118.43359375 951.26953125 C-98.73969353 950.57557851 -79.18049147 939.80563447 -65.75 925.75 C-58.96465109 917.91249256 -54.33811809 909.55034471 -50.75 899.875 C-50.51571289 899.26188965 -50.28142578 898.6487793 -50.04003906 898.01708984 C-45.34803394 884.48970921 -44.54678394 869.98833598 -44.49295044 855.80404663 C-44.47625257 854.15309322 -44.45840073 852.50215116 -44.43951488 850.85122132 C-44.39213743 846.36231834 -44.36316995 841.87347061 -44.33819684 837.38439396 C-44.31444797 833.50198554 -44.28027725 829.61969168 -44.24652389 825.7373594 C-43.83150387 777.52566409 -43.85229909 729.31038225 -43.86469769 681.09730498 C-43.86702937 671.81837262 -43.86727799 662.53944193 -43.86618423 653.26050949 C-43.86610785 652.58804663 -43.86603146 651.91558376 -43.86595276 651.22274323 C-43.86564115 648.48924642 -43.86532272 645.75574961 -43.864993 643.0222528 C-43.86197103 617.66177889 -43.86464726 592.30130857 -43.8700899 566.94083522 C-43.87483018 544.68451322 -43.87440741 522.42819695 -43.86962891 500.171875 C-43.86420848 474.84452839 -43.86218689 449.51718493 -43.86524117 424.18983781 C-43.86556162 421.46226589 -43.86587448 418.73469396 -43.86618423 416.00712204 C-43.86626331 415.33610398 -43.86634239 414.66508591 -43.86642386 413.97373397 C-43.8675348 404.08711939 -43.86624602 394.20050674 -43.86370468 384.31389236 C-43.85642584 352.32244613 -43.88435798 320.33134159 -43.98930395 288.34005177 C-44.00007669 284.97605156 -44.00987318 281.61204955 -44.01951313 278.24804592 C-44.05802825 265.30183139 -44.12077646 252.35607628 -44.21748376 239.41016269 C-44.24617475 235.49356021 -44.26631906 231.57707282 -44.27830672 227.66038442 C-44.29260253 223.14705516 -44.32581817 218.63425076 -44.37348399 214.1211541 C-44.38763637 212.50085491 -44.39549808 210.88048392 -44.39594236 209.26012298 C-44.41837271 181.03945822 -53.79191069 152.5126737 -73.1640625 131.671875 C-86.20466066 118.84934704 -102.97090843 113.81768029 -120.9375 113.625 C-138.55845349 113.78082028 -155.67110761 117.87371445 -169 130 Z " fill="#FEFEFE" transform="translate(2376,28)"/>
<path d="M0 0 C1.60612152 0.00090637 1.60612152 0.00090637 3.24468994 0.00183105 C19.1780115 0.02626547 34.97898436 0.22530645 50.8125 2.1875 C51.85841309 2.31640625 52.90432617 2.4453125 53.98193359 2.578125 C103.57298544 8.95696508 156.05618592 26.10063982 188.8125 66.1875 C189.21726562 66.67460449 189.62203125 67.16170898 190.0390625 67.66357422 C217.8932155 101.31049515 229.38715976 142.22441129 232.8125 185.1875 C232.86470703 185.83950378 232.91691406 186.49150757 232.97070312 187.16326904 C236.42032814 231.12070142 235.22114835 275.49855483 234.359375 319.54296875 C234.34019264 320.52368158 234.32101028 321.50439442 234.30124664 322.51482582 C233.86684385 344.40709479 233.32530932 366.29695221 232.8125 388.1875 C186.6125 388.1875 140.4125 388.1875 92.8125 388.1875 C92.4375 322.75 92.4375 322.75 92.33447266 302.30297852 C92.29443881 296.10441556 92.29443881 296.10441556 92.25204468 289.90586853 C92.23468302 287.20477945 92.22003814 284.50382969 92.20980835 281.80271912 C92.14843533 266.28321825 91.81297657 250.82066002 90.86865234 235.32788086 C90.82713523 234.64027085 90.78561812 233.95266085 90.74284291 233.24421418 C88.83020171 202.19015419 83.36415405 173.8538464 59.53515625 152.109375 C41.0836902 136.76095839 17.78738793 134.96015638 -5.1875 136.1875 C-23.87097385 138.10223346 -43.26406728 148.2790989 -55.28515625 162.66015625 C-74.6327836 188.36429362 -76.50068157 217.37335964 -76.44146729 248.47436523 C-76.44377468 251.12347136 -76.44687173 253.77256605 -76.45092177 256.42166901 C-76.45810529 262.15776691 -76.45795073 267.89382709 -76.45282745 273.62992668 C-76.44522922 282.16046284 -76.44914727 290.69096746 -76.45524407 299.22150344 C-76.46575287 314.46366187 -76.46487156 329.70580348 -76.45908624 344.94796348 C-76.45404659 358.29197094 -76.45274568 371.63597225 -76.45513153 384.97998047 C-76.4552843 385.86660476 -76.45543707 386.75322904 -76.45559447 387.66672073 C-76.4562172 391.26629451 -76.456854 394.86586828 -76.457514 398.46544205 C-76.4636276 432.21167127 -76.45809282 465.95788982 -76.4473202 499.70411739 C-76.43783608 529.64145508 -76.43867325 559.57877574 -76.44824219 589.51611328 C-76.45896968 623.19024256 -76.46318739 656.86436241 -76.45701766 690.53849316 C-76.45637628 694.13382657 -76.4557506 697.72915999 -76.45513153 701.32449341 C-76.4548943 702.65227792 -76.4548943 702.65227792 -76.45465227 704.00688637 C-76.45238419 717.33222006 -76.45502518 730.6575469 -76.46009064 743.98287964 C-76.46582824 759.1515489 -76.46433933 774.3201988 -76.45352915 789.48886567 C-76.44768859 797.96204181 -76.44722643 806.43517593 -76.4548215 814.9083509 C-76.45934744 820.58764212 -76.45644189 826.26690007 -76.44781196 831.9461864 C-76.44311155 835.16915928 -76.4424405 838.39203459 -76.44862393 841.61500728 C-76.48496688 862.15090708 -76.29253695 883.09008025 -71.9375 903.25 C-71.72134033 904.27963867 -71.50518066 905.30927734 -71.2824707 906.37011719 C-66.75354339 926.99167143 -57.99107672 945.95389575 -40.19140625 958.3046875 C-27.65583364 966.16183444 -12.98821926 970.60612969 1.8125 971.1875 C2.67230469 971.2390625 3.53210937 971.290625 4.41796875 971.34375 C26.73342378 972.08246851 47.96150841 965.44219467 65 950.9375 C83.13329383 933.86580724 87.5142257 913.00401954 88.26213932 889.06159687 C88.30096181 887.63767999 88.33912925 886.21374514 88.37670898 884.78979492 C88.39740664 884.04216271 88.4181043 883.29453049 88.43942916 882.52424276 C88.96973484 862.97769526 88.94236923 843.43015638 88.91389394 823.87797189 C88.90751199 818.7305136 88.90704517 813.58305428 88.90586853 808.43559265 C88.90279791 798.75048561 88.89464403 789.06539026 88.88451904 779.3802883 C88.87109805 766.24875078 88.8658234 753.11720991 88.86001682 739.98566723 C88.85069967 719.38626944 88.83075289 698.78689631 88.8125 678.1875 C59.4425 678.1875 30.0725 678.1875 -0.1875 678.1875 C-0.1875 633.6375 -0.1875 589.0875 -0.1875 543.1875 C77.0325 543.1875 154.2525 543.1875 233.8125 543.1875 C234.61197169 547.18485844 234.9607687 550.40268067 235.01782227 554.42333984 C235.03775742 555.70708496 235.05769257 556.99083008 235.07823181 558.31347656 C235.09541433 559.75846011 235.11229227 561.2034473 235.12890625 562.6484375 C235.14983781 564.22054238 235.17092621 565.79264518 235.19215393 567.36474609 C235.26214929 572.76390668 235.31876683 578.16318157 235.375 583.5625 C235.38534019 584.51229988 235.39568039 585.46209976 235.40633392 586.44068146 C236.41883344 679.45743286 236.3430311 772.53106074 235.52291107 868.46430206 C235.50046467 871.25473465 235.4828046 874.04515708 235.46661377 876.83563232 C235.0720786 941.06125602 223.44517699 1001.33048277 177.8125 1049.1875 C176.70455078 1050.37472656 176.70455078 1050.37472656 175.57421875 1051.5859375 C135.24965797 1093.60604654 74.68655761 1105.83860795 18.88671875 1107.375 C-47.76907802 1108.51077502 -115.85213099 1094.1223671 -165.15893555 1046.6184082 C-173.47577948 1038.42646004 -180.82362674 1029.97502613 -187.1875 1020.1875 C-187.57695801 1019.59437012 -187.96641602 1019.00124023 -188.36767578 1018.39013672 C-215.76826263 976.13753793 -221.05717518 928.14824073 -221.49951172 879.00439453 C-221.52011667 876.9816262 -221.54081814 874.95885886 -221.56160355 872.93609238 C-221.62999946 866.02256284 -221.68645903 859.10895387 -221.7421875 852.1953125 C-221.7577306 850.33617462 -221.7577306 850.33617462 -221.7735877 848.4394784 C-222.54977043 755.31579023 -222.33820271 662.18456942 -222.31696185 569.05855647 C-222.31247919 549.01917843 -222.3132617 528.97980743 -222.31787109 508.94042969 C-222.32329926 485.26672496 -222.32529178 461.59302359 -222.32225883 437.91931832 C-222.3219405 435.36854625 -222.32162612 432.81777418 -222.32131577 430.26700211 C-222.32116149 429.01416733 -222.32100721 427.76133256 -222.32084826 426.4705331 C-222.32000694 417.90060064 -222.32141275 409.33067048 -222.32379532 400.76073837 C-222.33585253 353.03403239 -222.26147595 305.31093873 -221.77313146 257.58636776 C-221.74225319 254.55103717 -221.7124867 251.51569724 -221.68287492 248.48035407 C-221.33660033 213.5814004 -221.33660033 213.5814004 -220.7270813 197.79318237 C-220.69152378 196.86273263 -220.65596626 195.93228289 -220.61933124 194.9736377 C-219.7604168 175.57818353 -216.32482155 156.88462092 -211.1875 138.1875 C-210.96755371 137.38151367 -210.74760742 136.57552734 -210.52099609 135.74511719 C-203.05867638 109.2392333 -188.80552098 84.53745536 -170.17578125 64.36328125 C-168.58043179 62.61748626 -167.08814268 60.85461898 -165.625 59 C-162.43647694 55.32093493 -158.93711588 52.2834586 -155.1875 49.1875 C-154.19878906 48.36121094 -153.21007813 47.53492188 -152.19140625 46.68359375 C-119.4294765 19.80462618 -78.11117937 5.25175553 -36.1875 1.1875 C-35.36258057 1.10137451 -34.53766113 1.01524902 -33.68774414 0.92651367 C-22.478564 -0.10587453 -11.24721236 -0.01166342 0 0 Z " fill="#FEFEFE" transform="translate(1706.1875,6.8125)"/>
<path d="M0 0 C115.1283363 0 115.1283363 0 131.0625 5.625 C131.79017578 5.87588379 132.51785156 6.12676758 133.26757812 6.38525391 C145.71671345 10.87541361 157.11246823 17.17675116 167 26 C168.2065625 26.99386719 168.2065625 26.99386719 169.4375 28.0078125 C185.35858901 41.49098475 195.43052506 59.06381131 201 79 C201.3196875 80.06347656 201.639375 81.12695312 201.96875 82.22265625 C206.38592365 99.70730194 206.15819973 121.7390113 201 139 C200.73316406 139.98613281 200.46632813 140.97226563 200.19140625 141.98828125 C192.33818339 168.34020685 174.09792167 189.89669388 150.13232422 203.02294922 C133.74381207 211.62055509 116.1725432 216.36347866 97.63183594 216.22705078 C96.54996128 216.22729185 95.46808662 216.22753292 94.35342789 216.2277813 C90.89698936 216.22630418 87.44077427 216.21114571 83.984375 216.1953125 C81.83219506 216.19236709 79.68001369 216.19032972 77.52783203 216.18920898 C69.60186598 216.17877934 61.67593073 216.15085687 53.75 216.125 C36.0125 216.08375 18.275 216.0425 0 216 C0 144.72 0 73.44 0 0 Z M35 33 C35 82.83 35 132.66 35 184 C93.93721249 188.14760637 93.93721249 188.14760637 145.73046875 164.29296875 C146.85388672 163.15794922 146.85388672 163.15794922 148 162 C148.69738281 161.33613281 149.39476563 160.67226562 150.11328125 159.98828125 C164.30854377 145.51738257 168.61856309 125.47640397 168.47753906 105.87866211 C168.14009896 93.9592539 165.6993401 82.57877513 160 72 C159.58105469 71.20464844 159.16210938 70.40929688 158.73046875 69.58984375 C150.01318252 54.05242174 136.64529819 43.07915238 120 37 C92.48221015 30.12055254 63.36468853 33 35 33 Z " fill="#FEFEFE" transform="translate(2652,1323)"/>
<path d="M0 0 C140.48780488 0 140.48780488 0 173 31 C173 31.66 173 32.32 173 33 C173.66 33 174.32 33 175 33 C196.7745185 55.54249945 204.62060477 84.65210184 204.27734375 115.1875 C203.48549529 143.36312274 190.89397131 169.2319607 170.67578125 188.6640625 C157.44271765 200.21643043 141.01516616 208.6462213 124 213 C123.07598389 213.24878906 122.15196777 213.49757813 121.19995117 213.75390625 C108.76306672 216.68636243 96.40775918 216.38095066 83.69140625 216.29296875 C81.5422794 216.28854783 79.3931493 216.28549351 77.24401855 216.28381348 C69.35012919 216.26820151 61.45630936 216.22631807 53.5625 216.1875 C35.886875 216.125625 18.21125 216.06375 0 216 C0 144.72 0 73.44 0 0 Z M35 33 C35 82.83 35 132.66 35 184 C96.77670787 187.96840463 96.77670787 187.96840463 148.2421875 161.87890625 C162.78090024 146.7018081 168.56704493 127.82322904 168.34936523 107.125 C167.69134782 84.99777046 159.81415431 66.06489679 143.75 50.6875 C112.77600302 24.97528534 73.83090079 33 35 33 Z " fill="#FEFEFE" transform="translate(1835,1323)"/>
<path d="M0 0 C1.7173938 0.00737183 1.7173938 0.00737183 3.46948242 0.01489258 C26.09687152 0.32833585 46.86500983 8.54935431 62.80322266 24.83886719 C72.08293557 34.71758802 78.41622309 45.80250612 80.1875 59.3125 C76.13252619 60.45843773 72.07571771 61.59755957 68.01708984 62.73046875 C66.6373366 63.1166312 65.25809725 63.50463478 63.87939453 63.89453125 C61.89488607 64.4554017 59.90860941 65.00957357 57.921875 65.5625 C56.13088379 66.06523438 56.13088379 66.06523438 54.30371094 66.578125 C51.1875 67.3125 51.1875 67.3125 47.1875 67.3125 C46.78660156 66.27351563 46.38570312 65.23453125 45.97265625 64.1640625 C40.75272398 51.1493855 34.2579674 41.50917371 21.1875 35.3125 C6.71768987 29.46936523 -9.85631782 29.35734757 -24.30078125 35.34375 C-30.96122974 38.6571832 -35.86066077 43.49368411 -39.25 50.125 C-40.49187353 57.16228335 -40.9937768 64.1438766 -37.23828125 70.48046875 C-32.63061762 76.40100092 -26.49460814 79.67474755 -19.71875 82.62890625 C-19.02714783 82.93055695 -18.33554565 83.23220764 -17.62298584 83.54299927 C-9.80705715 86.86206406 -1.75389207 89.37064032 6.3494873 91.88198853 C62.32945317 109.30559117 62.32945317 109.30559117 76.71875 133.46875 C83.73130931 147.04625846 85.61584457 162.56541108 81.27734375 177.3203125 C74.64213653 195.53740472 63.42155577 207.96964349 45.9375 216.5 C20.89896996 227.48181142 -8.2363495 228.62374258 -33.92382812 219.07177734 C-55.58983258 210.36168507 -70.72426595 193.91104141 -79.84375 172.68359375 C-81.92669796 167.58541063 -83.06007379 164.7186531 -81.8125 159.3125 C-77.57750802 158.17000172 -73.34165943 157.03075348 -69.10498047 155.89453125 C-67.66333311 155.5074072 -66.22192518 155.11939038 -64.78076172 154.73046875 C-62.71123301 154.17213754 -60.6408692 153.61700502 -58.5703125 153.0625 C-57.3239502 152.72734375 -56.07758789 152.3921875 -54.79345703 152.046875 C-51.8125 151.3125 -51.8125 151.3125 -49.8125 151.3125 C-49.60496094 152.03953125 -49.39742187 152.7665625 -49.18359375 153.515625 C-45.00956405 167.13798133 -38.96113466 178.01426548 -26.40625 185.28515625 C-11.4753251 193.20430982 6.18355372 195.39147562 22.625 190.625 C32.23898468 187.00710577 39.02307692 182.09575598 44 173 C46.70786033 164.59138108 47.0602991 156.99016038 43.03125 149.02734375 C33.55374469 133.25782797 11.2862729 128.48595171 -5.20046997 123.37261963 C-47.99442739 110.03364957 -47.99442739 110.03364957 -60.8125 97.3125 C-61.60785156 96.54292969 -62.40320312 95.77335937 -63.22265625 94.98046875 C-72.62874211 85.26849392 -76.72165872 74.33910643 -76.84375 60.86328125 C-76.08795549 43.68785101 -69.16170472 30.66153765 -56.8125 18.8828125 C-40.81948679 5.18046524 -20.72760532 -0.105449 0 0 Z " fill="#FEFEFE" transform="translate(3145.8125,1318.6875)"/>
<path d="M0 0 C10.56 0 21.12 0 32 0 C37.05666077 10.62429645 41.74119215 21.34942842 46.24703979 32.21746826 C48.21875089 36.97217213 50.20171217 41.72218482 52.18359375 46.47265625 C52.5875386 47.44150757 52.99148346 48.41035889 53.40766907 49.40856934 C57.37478132 58.91567 61.39954143 68.39781905 65.4375 77.875 C66.8453594 81.18085879 68.25288927 84.48685772 69.66015625 87.79296875 C70.18882797 89.03495529 70.18882797 89.03495529 70.72817993 90.30203247 C74.96293353 100.25576134 79.16952166 110.22137512 83.375 120.1875 C83.76767059 121.11799164 84.16034119 122.04848328 84.56491089 123.00717163 C86.56277565 127.74163541 88.56028988 132.47624697 90.55761719 137.2109375 C93.88366008 145.09503957 97.21178757 152.9782613 100.5402832 160.86132812 C102.15925833 164.69569032 103.77754775 168.53034076 105.39526367 172.36523438 C108.7963376 180.42605123 112.20164195 188.48485626 115.63671875 196.53125 C116.16737221 197.77642534 116.69797362 199.02162287 117.22851562 200.2668457 C118.16813517 202.46982586 119.11062045 204.67158703 120.05664062 206.87182617 C120.45431641 207.80486572 120.85199219 208.73790527 121.26171875 209.69921875 C121.60162842 210.49158936 121.94153809 211.28395996 122.29174805 212.1003418 C123 214 123 214 123 216 C110.79 216 98.58 216 86 216 C78.24829768 200.49659536 72.43743839 184.09359598 66 168 C33 168 0 168 -34 168 C-39.94 182.52 -45.88 197.04 -52 212 C-52.66 213.32 -53.32 214.64 -54 216 C-66.21 216 -78.42 216 -91 216 C-87.62845159 204.7615053 -87.62845159 204.7615053 -85.42578125 199.796875 C-84.68497314 198.1106604 -84.68497314 198.1106604 -83.92919922 196.39038086 C-83.39568848 195.18905518 -82.86217773 193.98772949 -82.3125 192.75 C-81.13043741 190.06019932 -79.95366029 187.368099 -78.77734375 184.67578125 C-78.46980164 183.97292496 -78.16225952 183.27006866 -77.84539795 182.5459137 C-74.27760025 174.37585545 -70.82474041 166.15793314 -67.375 157.9375 C-66.70333171 156.33827907 -66.0316189 154.73907683 -65.35986328 153.13989258 C-64.32040237 150.66512756 -63.2810348 148.19032361 -62.24200439 145.71537781 C-58.07147345 135.78338207 -53.8792745 125.86054388 -49.6875 115.9375 C-48.48328234 113.08645649 -47.27909843 110.23539873 -46.07492065 107.38433838 C-45.26612584 105.46941179 -44.45730823 103.55449482 -43.64846802 101.6395874 C-40.81994247 94.9427301 -37.9935032 88.24499479 -35.16796875 81.546875 C-30.84212547 71.29262623 -26.51206499 61.04016527 -22.17877197 50.7890625 C-20.97861449 47.94940028 -19.77907828 45.10947614 -18.57958984 42.26953125 C-16.615145 37.61936609 -14.647761 32.9704541 -12.67828369 28.32241821 C-11.94427238 26.58905378 -11.21113416 24.85531932 -10.47894287 23.1211853 C-9.4688892 20.72947993 -8.45555311 18.33919083 -7.44140625 15.94921875 C-7.15057663 15.25856323 -6.85974701 14.56790771 -6.56010437 13.85632324 C-4.54395839 9.11843285 -2.31344458 4.62688916 0 0 Z M15 43 C14.71503662 43.81114258 14.43007324 44.62228516 14.13647461 45.45800781 C7.79470203 63.41820885 1.04945497 81.13890127 -6.39477539 98.67285156 C-11.78730221 111.3851364 -16.86591634 124.16479086 -22 137 C2.75 137 27.5 137 53 137 C51.02937267 130.43124222 49.03482239 124.29712748 46.375 118.0390625 C46.0314447 117.21850876 45.6878894 116.39795502 45.33392334 115.55253601 C44.60317252 113.80774766 43.87036293 112.06382029 43.13562012 110.32070923 C41.20851943 105.74620141 39.29950058 101.16416788 37.390625 96.58203125 C37.01198303 95.67368027 36.63334106 94.76532928 36.2432251 93.82945251 C32.99545797 86.02265234 29.83744861 78.18395463 26.75 70.3125 C26.33363281 69.25434082 25.91726562 68.19618164 25.48828125 67.10595703 C23.81406943 62.81270156 22.16822028 58.51825801 20.66601562 54.16162109 C20.44262512 53.51766891 20.21923462 52.87371674 19.98907471 52.21025085 C19.35983856 50.38496342 18.74068316 48.55621004 18.12207031 46.72729492 C17.29782938 43.87516409 17.29782938 43.87516409 15 43 Z " fill="#FEFEFE" transform="translate(2318,1323)"/>
</svg>
