<?xml version="1.0" standalone="no"?>
<!DOCTYPE svg PUBLIC "-//W3C//DTD SVG 20010904//EN"
 "http://www.w3.org/TR/2001/REC-SVG-20010904/DTD/svg10.dtd">
<svg version="1.0" xmlns="http://www.w3.org/2000/svg"
 width="3921.000000pt" height="1798.000000pt" viewBox="0 0 3921.000000 1798.000000"
 preserveAspectRatio="xMidYMid meet">

<g transform="translate(0.000000,1798.000000) scale(0.100000,-0.100000)"
fill="#000000" stroke="none">
<path d="M22295 17915 c-168 -19 -286 -40 -461 -85 -850 -217 -1329 -754
-1463 -1643 -48 -314 -46 -187 -46 -3872 0 -3289 1 -3488 18 -3623 34 -270 86
-476 173 -678 273 -640 820 -1031 1621 -1160 154 -24 506 -29 692 -10 732 78
1230 343 1553 825 196 294 302 632 360 1151 15 141 25 3011 17 5320 -6 1858
-6 1859 -54 2190 -77 534 -342 978 -745 1250 -275 185 -641 300 -1080 340
-153 13 -436 11 -585 -5z m413 -1370 c123 -25 232 -84 322 -174 41 -42 90
-102 108 -133 51 -85 109 -227 139 -336 l26 -97 8 -550 c9 -746 9 -5116 -1
-5800 -8 -571 -10 -594 -55 -730 -87 -262 -289 -447 -564 -516 -111 -28 -272
-23 -371 10 -289 99 -490 386 -540 771 -8 61 -10 1044 -8 3415 l4 3330 22 99
c59 257 128 410 233 521 77 80 147 126 247 161 131 45 292 56 430 29z"/>
<path d="M27700 17916 c-586 -68 -1087 -287 -1401 -613 -321 -333 -471 -730
-541 -1428 -19 -188 -19 -6929 0 -7115 72 -712 351 -1225 847 -1556 388 -258
889 -388 1435 -371 423 13 790 98 1100 254 540 271 856 731 980 1424 49 273
50 312 61 1534 12 1343 4 5463 -11 5745 -14 261 -29 439 -45 554 -88 599 -428
1095 -923 1345 -199 100 -425 165 -742 212 -175 27 -589 34 -760 15z m427
-1371 c164 -31 320 -137 419 -287 53 -79 123 -244 154 -363 11 -44 25 -129 30
-190 12 -134 12 -5990 0 -6475 -7 -315 -9 -341 -33 -434 -66 -250 -197 -415
-412 -522 -132 -65 -232 -87 -369 -82 -171 7 -297 59 -427 177 -132 119 -222
287 -272 511 l-21 95 -3 3185 c-4 3322 -2 3547 37 3712 29 128 82 277 125 355
55 98 169 208 267 257 141 69 337 93 505 61z"/>
<path d="M16795 17904 c-256 -25 -421 -57 -610 -118 -648 -210 -1090 -684
-1254 -1346 -44 -177 -59 -293 -73 -545 -17 -310 -17 -6781 0 -7065 29 -478
128 -801 343 -1126 89 -134 298 -347 439 -447 202 -143 524 -280 800 -341 353
-77 897 -95 1255 -41 443 68 826 245 1107 513 319 305 511 703 584 1212 23
165 36 1335 29 2660 -3 630 -8 1162 -12 1183 l-6 37 -1168 0 -1169 0 0 -675 0
-675 443 0 444 0 6 -332 c10 -467 8 -1405 -3 -1708 -10 -276 -21 -348 -68
-452 -89 -196 -237 -327 -447 -397 -308 -102 -664 -37 -863 158 -141 137 -210
302 -260 621 -15 96 -17 395 -20 3355 -2 2359 0 3281 8 3362 42 414 251 695
590 793 96 28 298 38 408 20 374 -60 608 -339 661 -790 23 -194 31 -461 31
-1087 l0 -643 699 0 699 0 8 438 c12 607 10 1315 -4 1512 -24 325 -65 541
-138 737 -254 679 -808 1063 -1684 1168 -128 16 -676 29 -775 19z"/>
<path d="M31250 12382 l0 -5369 953 -7 c946 -7 1594 2 1806 25 588 64 1043
375 1302 891 131 262 217 594 264 1023 29 264 37 1223 31 3785 -6 3016 -14
3281 -106 3651 -129 519 -447 929 -895 1152 -201 100 -365 151 -630 194 -88
15 -255 17 -1412 20 l-1313 4 0 -5369z m1925 3998 c233 -11 474 -34 540 -51
52 -14 131 -54 178 -91 82 -65 169 -217 207 -365 53 -206 51 -157 61 -1408 13
-1673 6 -5254 -10 -5365 -57 -382 -203 -589 -474 -675 -160 -51 -302 -60 -864
-56 l-133 1 0 4016 0 4016 138 -6 c75 -3 236 -11 357 -16z"/>
<path d="M36243 17736 c-140 -34 -275 -145 -338 -277 -97 -205 -57 -431 104
-590 104 -102 222 -150 364 -148 275 2 507 237 507 514 0 226 -164 440 -379
497 -77 20 -185 21 -258 4z m230 -71 c126 -33 225 -113 282 -228 85 -172 59
-362 -67 -502 -212 -233 -578 -176 -720 113 -32 64 -33 71 -33 187 0 116 1
123 33 188 96 195 303 295 505 242z"/>
<path d="M36140 17236 l0 -306 45 0 45 0 0 130 0 130 83 0 84 0 55 -127 55
-128 51 -3 51 -3 -61 138 c-55 127 -59 138 -42 148 119 66 121 231 4 299 -31
19 -55 21 -202 24 l-168 4 0 -306z m333 206 c48 -45 40 -129 -16 -162 -26 -16
-51 -20 -129 -20 l-98 0 0 106 0 106 109 -4 c98 -3 112 -5 134 -26z"/>
<path d="M11005 17574 c-287 -30 -547 -129 -837 -320 -148 -97 -262 -204 -317
-297 -52 -88 -87 -205 -125 -413 -19 -105 -41 -205 -50 -222 -17 -32 -39 -43
-175 -82 -66 -19 -82 -29 -137 -84 -54 -54 -65 -72 -84 -135 -17 -55 -21 -85
-16 -124 4 -29 10 -81 13 -115 l5 -64 -53 5 c-30 2 -83 10 -119 17 -89 18
-156 -2 -242 -70 -102 -80 -249 -177 -313 -206 -33 -15 -136 -53 -230 -85 -97
-33 -239 -93 -330 -138 -269 -133 -440 -257 -583 -424 -116 -135 -742 -747
-1127 -1102 -69 -64 -285 -235 -505 -400 -212 -159 -432 -330 -490 -380 -58
-50 -186 -158 -285 -239 -99 -82 -232 -201 -295 -265 -231 -233 -399 -501
-439 -701 -6 -30 -15 -115 -21 -189 -13 -175 -1 -307 51 -570 47 -240 67 -290
184 -461 152 -223 206 -409 206 -700 -1 -230 -33 -365 -143 -592 -63 -130 -75
-149 -103 -158 -23 -8 -95 -2 -305 25 -744 96 -873 120 -1099 205 -272 102
-361 115 -461 67 -74 -36 -147 -36 -218 -1 -39 19 -88 66 -213 202 -237 259
-422 448 -460 471 -70 43 -127 20 -240 -96 -117 -119 -1151 -1342 -1332 -1575
-80 -103 -98 -142 -100 -219 -2 -51 1 -61 26 -87 16 -16 52 -43 80 -58 46 -26
62 -29 132 -28 128 1 313 58 565 174 63 29 171 72 240 95 69 23 204 77 300
120 261 115 335 138 450 139 92 1 97 0 168 -38 88 -47 168 -129 178 -184 9
-46 -11 -232 -75 -697 -27 -198 -55 -411 -61 -473 -22 -200 -3 -292 74 -359
50 -45 98 -58 206 -58 166 0 201 27 410 321 375 529 474 659 583 762 101 95
204 124 287 82 51 -26 83 -69 151 -204 76 -150 73 -149 289 -142 192 6 396 34
931 130 200 36 396 70 434 76 154 25 322 100 435 194 53 43 79 77 139 177 178
298 304 469 342 469 48 0 71 -150 94 -615 18 -361 22 -392 75 -562 125 -406
456 -1315 515 -1415 98 -165 333 -445 750 -888 111 -119 207 -225 213 -237 34
-62 6 -138 -117 -321 -118 -177 -213 -347 -402 -717 -242 -475 -337 -700 -398
-942 -33 -131 -122 -397 -199 -600 -52 -135 -94 -272 -206 -668 -85 -299 -127
-421 -224 -640 -43 -99 -94 -219 -112 -267 l-33 -88 -895 -2 -894 -3 -143
-293 -143 -292 17514 0 17514 0 0 295 0 295 -14265 2 -14264 3 41 80 c46 90
107 196 348 600 197 331 324 558 397 712 65 136 248 616 293 768 18 61 75 229
127 375 135 379 142 399 169 562 61 369 44 460 -151 813 -97 176 -125 239
-125 284 0 36 53 125 92 155 64 48 76 50 378 51 311 1 359 6 550 67 128 40
334 143 450 226 114 81 313 275 400 392 214 283 274 470 274 850 0 394 -60
616 -241 890 -180 272 -451 577 -608 683 -61 41 -89 52 -205 81 -84 21 -231
46 -387 65 -262 33 -299 41 -347 74 -33 23 -193 222 -511 637 -121 157 -228
293 -240 302 -31 26 -78 22 -116 -9 -46 -39 -145 -175 -184 -253 -48 -95 -68
-172 -67 -259 1 -119 35 -193 188 -411 121 -172 137 -219 93 -274 -26 -34 -46
-44 -131 -67 -39 -11 -83 -26 -99 -35 -43 -22 -96 -79 -123 -132 -39 -77 -110
-148 -180 -182 -63 -29 -117 -40 -294 -59 -183 -19 -221 -60 -222 -237 0 -96
-2 -105 -36 -172 -41 -84 -71 -111 -245 -226 -240 -160 -279 -219 -315 -482
-3 -18 -14 -44 -26 -59 -82 -105 -313 -58 -557 113 -157 111 -347 194 -600
261 -84 23 -167 49 -183 59 -43 25 -61 68 -98 231 -49 222 -73 281 -192 483
-87 147 -207 396 -248 513 -78 224 -102 379 -201 1330 -87 834 -54 1430 111
2006 55 194 154 376 216 399 70 27 46 52 541 -547 254 -307 527 -636 608 -732
182 -218 217 -282 223 -410 3 -59 -1 -107 -12 -150 -9 -34 -16 -91 -16 -126 0
-56 2 -63 22 -68 35 -10 62 25 140 178 82 163 99 185 143 185 41 0 92 -37 215
-155 236 -226 274 -254 324 -241 41 10 35 52 -20 126 -54 73 -64 98 -64 154 0
98 63 90 248 -32 123 -81 191 -93 200 -34 4 28 -36 71 -222 236 -196 174 -372
355 -447 462 -122 171 -483 812 -609 1082 -175 375 -271 644 -274 767 -1 64 2
76 34 129 44 72 147 178 295 302 196 164 465 501 560 699 64 135 71 216 41
463 -10 84 -16 166 -12 182 7 36 54 110 70 110 6 0 34 -13 62 -30 43 -24 65
-48 124 -137 116 -173 164 -213 259 -213 59 0 75 7 202 81 111 66 203 107 314
142 86 27 246 57 304 57 54 0 162 25 213 50 79 37 124 84 170 177 49 98 73
120 117 105 16 -6 80 -46 143 -90 170 -120 286 -191 341 -207 87 -26 152 7
182 92 11 29 13 86 8 253 -5 204 -4 221 21 340 14 69 50 215 81 325 102 370
137 550 151 790 7 123 -7 198 -73 390 -86 249 -187 410 -373 595 -147 147
-212 189 -460 296 -91 39 -199 88 -242 107 -42 20 -100 43 -130 52 -54 16
-201 26 -273 19z"/>
<path d="M31315 4784 c-11 -2 -50 -11 -87 -20 -235 -54 -436 -215 -503 -403
-28 -79 -37 -167 -25 -250 16 -113 56 -190 144 -276 103 -102 226 -162 544
-265 359 -116 448 -164 506 -270 24 -43 29 -65 29 -119 0 -151 -97 -261 -270
-306 -75 -20 -242 -19 -318 0 -175 46 -324 191 -365 358 -10 36 -16 46 -29 43
-9 -3 -79 -22 -156 -42 -77 -21 -144 -41 -149 -46 -14 -12 19 -110 72 -212
158 -302 502 -468 886 -427 219 24 389 96 512 216 116 115 172 234 181 390 15
269 -132 464 -454 604 -50 22 -184 69 -299 106 -221 71 -345 124 -406 174 -98
82 -104 226 -15 327 68 77 192 124 329 124 229 0 412 -127 478 -332 6 -21 17
-38 23 -38 6 0 80 19 164 42 101 27 153 46 153 55 0 34 -65 177 -109 240 -106
151 -258 253 -457 309 -57 16 -332 29 -379 18z"/>
<path d="M18350 3670 l0 -1080 536 0 c499 0 543 1 635 20 426 87 728 364 837
768 23 88 26 114 26 282 0 168 -3 194 -26 282 -118 437 -465 734 -931 797 -47
7 -280 11 -578 11 l-499 0 0 -1080z m1108 730 c225 -54 396 -188 492 -385 49
-101 69 -182 76 -315 24 -413 -238 -728 -647 -780 -46 -5 -217 -10 -381 -10
l-298 0 0 755 0 755 338 0 c302 0 346 -2 420 -20z"/>
<path d="M23172 4733 c-15 -30 -902 -2130 -902 -2137 0 -3 83 -6 184 -6 l184
0 26 63 c14 34 59 143 100 242 l73 180 502 0 502 0 98 -240 97 -240 187 -3
c103 -1 187 -1 187 1 0 3 -204 487 -454 1078 l-454 1074 -160 3 c-146 2 -162
1 -170 -15z m213 -533 c20 -58 102 -263 181 -456 79 -194 144 -354 144 -358 0
-3 -168 -6 -374 -6 l-373 0 138 338 c77 185 160 396 187 469 26 72 50 129 53
125 4 -4 24 -54 44 -112z"/>
<path d="M26520 3671 l0 -1081 534 0 c578 0 624 3 781 56 352 117 600 379 696
734 21 75 24 107 23 280 0 180 -2 203 -27 295 -104 385 -404 667 -816 768 -81
19 -120 21 -638 24 l-553 4 0 -1080z m1135 726 c33 -9 102 -38 152 -62 73 -36
110 -62 171 -123 91 -89 141 -169 185 -297 30 -86 32 -97 32 -250 0 -140 -3
-169 -23 -235 -40 -128 -87 -206 -182 -301 -72 -73 -99 -93 -180 -132 -157
-75 -194 -80 -592 -85 l-348 -4 0 757 0 756 363 -3 c304 -3 372 -7 422 -21z"/>
</g>
</svg>
