<?xml version="1.0" standalone="no"?>
<!DOCTYPE svg PUBLIC "-//W3C//DTD SVG 20010904//EN"
 "http://www.w3.org/TR/2001/REC-SVG-20010904/DTD/svg10.dtd">
<svg version="1.0" xmlns="http://www.w3.org/2000/svg"
 width="1091.000000pt" height="835.000000pt" viewBox="0 0 1091.000000 835.000000"
 preserveAspectRatio="xMidYMid meet">

<g transform="translate(0.000000,835.000000) scale(0.100000,-0.100000)"
fill="#000000" stroke="none">
<path d="M879 8340 c-102 -17 -210 -54 -319 -107 -111 -54 -120 -61 -251 -192
-130 -131 -138 -140 -192 -251 -31 -63 -69 -158 -84 -210 l-28 -95 -3 -3270
c-2 -3261 -2 -3270 18 -3373 86 -430 390 -735 820 -822 102 -20 108 -20 4615
-20 4507 0 4513 0 4615 20 429 87 733 391 820 820 20 102 20 118 20 3335 0
3217 0 3233 -20 3335 -87 429 -391 733 -820 820 -102 20 -105 20 -4624 19
-2486 -1 -4542 -5 -4567 -9z m3847 -1414 c158 -34 252 -82 350 -180 80 -81
122 -148 158 -256 50 -151 51 -186 51 -1585 -1 -1411 0 -1384 -56 -1555 -93
-286 -322 -449 -672 -479 -431 -36 -766 168 -866 529 -40 143 -42 241 -38
1575 3 1253 4 1282 24 1375 29 130 56 198 115 286 107 160 296 265 543 304 83
12 305 5 391 -14z m1934 9 c52 -8 120 -22 150 -31 239 -72 397 -260 451 -539
16 -83 25 -2612 10 -2771 -38 -387 -211 -610 -541 -695 -107 -27 -326 -37
-436 -19 -316 51 -529 236 -616 535 l-23 80 -3 1340 c-2 1180 -1 1353 13 1449
31 212 90 341 205 450 183 172 482 248 790 201z m-3907 -19 c222 -51 381 -164
470 -334 79 -151 102 -348 91 -799 l-7 -273 -254 0 -253 0 0 188 c-1 246 -15
475 -34 537 -33 109 -100 174 -207 201 -138 35 -281 -23 -341 -141 -49 -94
-48 -63 -48 -1355 0 -757 4 -1241 10 -1284 28 -190 129 -286 301 -286 126 0
226 59 273 159 20 44 21 62 24 484 l3 437 -166 0 -165 0 0 245 0 245 433 -2
432 -3 3 -635 c3 -670 -2 -797 -39 -917 -99 -320 -339 -491 -714 -510 -524
-26 -862 214 -914 648 -12 100 -19 1547 -11 2274 6 579 7 589 87 755 38 79 59
108 127 175 110 110 224 168 391 201 93 18 412 12 508 -10z m5975 -52 c255
-52 444 -231 507 -479 29 -115 36 -296 41 -1220 6 -995 -3 -1521 -31 -1655
-62 -307 -211 -484 -470 -557 -52 -14 -130 -17 -582 -21 l-523 -4 0 1976 0
1976 490 0 c409 0 504 -3 568 -16z m-897 -4770 c74 -24 152 -101 173 -171 6
-20 1 -24 -48 -38 -57 -17 -76 -14 -76 10 0 22 -52 77 -87 91 -43 19 -137 18
-173 -1 -30 -16 -60 -61 -60 -91 0 -37 63 -80 165 -114 182 -59 250 -105 281
-187 20 -51 15 -116 -13 -170 -84 -162 -394 -180 -518 -29 -32 39 -65 102 -65
124 0 6 20 15 44 21 24 6 50 13 59 17 11 4 18 -4 26 -29 11 -34 59 -86 96
-105 105 -52 250 5 250 98 0 63 -37 92 -169 136 -61 20 -131 47 -156 60 -134
67 -166 202 -73 305 81 90 209 117 344 73z m-4502 -5 c178 -41 300 -184 309
-364 9 -173 -67 -307 -215 -377 -82 -39 -164 -49 -364 -46 l-164 3 -3 398 -2
397 197 0 c109 0 218 -5 242 -11z m1619 -371 c89 -211 164 -391 168 -401 6
-16 0 -18 -62 -15 l-69 3 -35 88 -35 87 -189 -2 -188 -3 -35 -87 -35 -88 -64
0 c-43 0 -64 4 -64 12 0 10 298 725 322 771 7 13 22 17 67 17 l58 0 161 -382z
m1384 371 c124 -26 245 -125 289 -237 32 -81 32 -223 0 -304 -31 -79 -106
-160 -184 -198 -80 -38 -162 -50 -369 -50 l-168 0 0 400 0 400 190 0 c104 0
213 -5 242 -11z"/>
<path d="M4410 6439 c-68 -14 -129 -57 -161 -114 -64 -114 -61 -52 -66 -1360
-3 -803 -2 -1220 6 -1283 16 -148 64 -233 161 -286 128 -70 298 -9 367 132
l28 57 8 617 c5 339 5 929 0 1310 -9 683 -9 694 -31 749 -55 138 -174 207
-312 178z"/>
<path d="M6402 6440 c-48 -10 -96 -37 -129 -72 -33 -35 -70 -125 -83 -198 -8
-45 -10 -440 -8 -1315 l3 -1250 31 -65 c17 -36 46 -80 65 -99 105 -106 279
-96 384 21 86 96 80 -14 80 1433 0 1239 -1 1282 -19 1339 -52 157 -176 236
-324 206z"/>
<path d="M8200 4909 l0 -1479 135 0 c261 0 342 43 392 205 17 57 18 128 18
1260 0 1296 1 1268 -53 1369 -50 92 -96 106 -384 120 l-108 5 0 -1480z"/>
<path d="M3020 1699 l0 -282 143 5 c192 7 254 35 313 140 26 47 29 63 29 138
0 76 -3 91 -30 139 -59 107 -137 141 -325 141 l-130 0 0 -281z"/>
<path d="M4659 1771 l-66 -166 130 -3 c71 -1 132 -1 134 1 3 4 -124 329 -130
333 -1 1 -32 -73 -68 -165z"/>
<path d="M6030 1699 l0 -282 138 5 c160 5 218 24 278 90 52 58 68 101 67 188
0 93 -26 153 -91 210 -62 55 -119 70 -269 70 l-123 0 0 -281z"/>
</g>
</svg>
