<?xml version="1.0" standalone="no"?>
<!DOCTYPE svg PUBLIC "-//W3C//DTD SVG 20010904//EN"
 "http://www.w3.org/TR/2001/REC-SVG-20010904/DTD/svg10.dtd">
<svg version="1.0" xmlns="http://www.w3.org/2000/svg"
 width="750.000000pt" height="1036.000000pt" viewBox="0 0 750.000000 1036.000000"
 preserveAspectRatio="xMidYMid meet">

<g transform="translate(0.000000,1036.000000) scale(0.100000,-0.100000)"
fill="#000000" stroke="none">
<path d="M4489 10336 c-81 -28 -175 -89 -200 -130 -20 -32 -32 -72 -43 -138
-6 -30 -12 -39 -40 -48 -49 -16 -70 -44 -70 -93 -1 -42 -1 -42 -37 -39 -27 2
-48 -6 -85 -31 -27 -19 -75 -43 -107 -55 -140 -53 -175 -78 -358 -259 -97 -96
-228 -214 -291 -262 -264 -200 -377 -317 -394 -408 -10 -51 1 -191 19 -241 8
-24 26 -60 40 -80 54 -78 61 -208 17 -310 -21 -49 -24 -52 -59 -52 -73 0 -268
32 -336 56 -54 18 -82 22 -122 18 l-51 -7 -87 92 c-48 50 -93 91 -99 91 -17 0
-65 -52 -241 -260 -85 -102 -158 -195 -161 -208 -4 -12 -1 -29 6 -37 24 -29
86 -17 250 50 183 74 217 79 260 36 24 -23 28 -35 24 -62 -40 -296 -42 -329
-16 -352 24 -22 77 -22 100 1 9 9 44 56 77 102 89 126 146 182 181 178 22 -2
34 -13 52 -45 23 -41 25 -43 72 -43 27 0 125 13 219 29 211 37 235 48 296 147
51 82 70 101 80 83 4 -6 12 -68 17 -137 8 -112 15 -144 58 -267 93 -271 92
-269 267 -459 40 -44 73 -87 73 -96 0 -9 -23 -55 -51 -101 -65 -108 -153 -288
-174 -359 -9 -30 -32 -98 -50 -150 -18 -52 -43 -131 -55 -175 -12 -44 -43
-133 -68 -197 l-46 -118 -1593 0 -1593 0 0 -80 0 -80 3580 0 3580 0 0 80 0 80
-1425 0 c-980 0 -1425 3 -1425 10 0 16 34 81 106 201 93 159 111 197 181 394
52 145 66 195 70 260 5 77 4 82 -31 149 -63 121 -49 142 100 148 93 3 108 7
177 41 82 40 161 116 199 191 27 51 36 184 19 263 -15 64 -87 176 -159 247
-40 39 -61 51 -108 62 -33 7 -70 14 -84 14 -72 1 -93 16 -189 140 -51 66 -99
120 -107 120 -20 0 -64 -70 -71 -113 -5 -31 1 -48 38 -108 l43 -72 -23 -18
c-13 -11 -29 -19 -37 -19 -7 0 -26 -16 -41 -36 -30 -40 -75 -64 -120 -64 -40
0 -54 -13 -57 -51 -4 -47 -20 -74 -59 -97 -51 -32 -81 -70 -92 -115 -9 -39
-12 -42 -48 -45 -30 -3 -53 6 -113 42 -42 24 -99 50 -127 56 -67 16 -83 31
-98 93 -7 29 -34 93 -60 142 -58 108 -72 167 -94 388 -29 285 -9 534 51 635
19 33 43 48 54 35 55 -62 310 -375 320 -393 8 -14 10 -41 7 -72 -7 -53 7 -65
24 -21 11 28 37 63 48 63 3 0 31 -22 61 -50 59 -53 93 -68 66 -28 -21 29 -20
58 0 58 9 0 32 -10 51 -21 63 -39 47 -10 -43 79 -74 72 -100 107 -156 207 -86
154 -140 278 -146 336 l-4 45 94 95 c122 122 152 180 143 271 -7 73 2 96 33
79 11 -6 30 -26 42 -45 30 -49 49 -52 121 -16 34 17 89 36 123 41 69 11 102
29 118 65 6 13 16 24 21 24 5 0 36 -18 69 -40 94 -63 108 -56 108 56 0 40 12
111 31 186 26 98 31 134 27 192 -10 145 -95 253 -255 319 -101 43 -124 44
-214 13z"/>
<path d="M850 5290 c-269 -28 -459 -151 -561 -365 -78 -161 -74 -82 -74 -1530
0 -1452 -4 -1364 76 -1526 93 -184 273 -308 509 -350 110 -19 337 -17 435 5
102 22 245 92 312 151 110 97 188 255 212 428 7 49 11 311 11 703 l0 624 -400
0 -400 0 0 -225 0 -224 153 -3 152 -3 0 -405 c0 -401 0 -405 -23 -455 -29 -64
-55 -91 -117 -123 -44 -24 -62 -27 -145 -27 -86 0 -99 3 -143 28 -58 35 -102
92 -125 166 -16 52 -17 148 -17 1256 l0 1200 33 68 c56 114 152 165 286 155
145 -12 234 -109 256 -280 5 -40 10 -189 10 -330 l0 -258 233 0 234 0 6 167
c13 328 3 566 -28 688 -64 246 -248 404 -523 449 -114 19 -268 26 -362 16z"/>
<path d="M2683 5286 c-175 -33 -290 -91 -393 -195 -42 -42 -87 -99 -102 -126
-39 -74 -76 -210 -88 -326 -14 -135 -14 -2394 0 -2505 24 -192 77 -311 190
-425 62 -63 92 -84 170 -122 146 -70 207 -82 395 -81 131 1 174 5 240 23 258
70 412 224 475 476 35 137 40 316 40 1415 0 1097 -5 1279 -40 1413 -57 226
-219 385 -450 442 -90 23 -343 29 -437 11z m292 -480 c50 -30 84 -75 118 -157
l22 -54 3 -1160 c2 -807 0 -1179 -8 -1224 -21 -122 -83 -203 -179 -236 -139
-47 -275 26 -328 178 -17 49 -18 120 -18 1232 0 1120 1 1183 19 1248 39 142
129 212 263 203 44 -2 75 -11 108 -30z"/>
<path d="M4540 5286 c-276 -58 -446 -191 -526 -410 -59 -163 -58 -136 -62
-1396 -3 -1216 1 -1372 39 -1495 98 -322 380 -501 762 -482 146 6 241 29 354
83 209 100 322 287 353 584 13 123 13 2303 0 2467 -5 68 -17 153 -25 190 -51
222 -212 383 -442 444 -101 27 -355 35 -453 15z m254 -458 c59 -18 128 -90
157 -163 l24 -60 0 -1210 c0 -1163 -1 -1212 -19 -1259 -41 -106 -140 -176
-250 -176 -108 0 -191 63 -238 179 l-23 56 0 1185 c0 1125 1 1188 19 1253 19
71 59 136 101 163 65 42 152 55 229 32z"/>
<path d="M5840 3400 l0 -1841 493 4 c417 3 500 6 547 20 212 63 346 210 405
441 43 169 45 233 45 1338 -1 1060 -6 1303 -35 1413 -55 215 -213 377 -431
441 -52 15 -118 18 -541 21 l-483 4 0 -1841z m705 1375 c61 -3 126 -10 146
-15 80 -22 132 -113 149 -255 13 -117 13 -2121 0 -2224 -19 -145 -81 -227
-191 -250 -27 -6 -111 -11 -184 -11 l-135 0 0 1385 0 1385 53 -5 c28 -2 102
-7 162 -10z"/>
<path d="M5821 949 c-161 -32 -241 -190 -149 -295 38 -43 74 -62 201 -104 151
-50 203 -110 163 -188 -8 -15 -32 -37 -54 -50 -90 -50 -227 -9 -262 80 -8 18
-14 34 -16 36 -2 4 -94 -20 -94 -25 0 -2 11 -25 24 -51 47 -92 128 -142 243
-150 125 -8 221 35 264 120 30 60 24 151 -14 202 -28 37 -142 98 -202 109 -52
9 -140 46 -163 67 -16 15 -22 32 -22 65 0 36 5 48 30 69 34 28 101 42 151 31
46 -10 88 -43 110 -87 11 -21 22 -38 25 -38 3 0 25 5 50 11 31 8 44 17 44 29
0 20 -42 85 -73 112 -57 50 -169 75 -256 57z"/>
<path d="M1400 942 c-6 -2 -10 -136 -10 -368 l0 -364 158 0 c87 0 185 5 217
11 289 53 407 382 214 593 -55 61 -145 111 -212 121 -46 6 -351 12 -367 7z
m415 -121 c103 -47 148 -121 149 -246 0 -70 -4 -87 -30 -134 -31 -58 -88 -103
-154 -121 -19 -5 -90 -10 -157 -10 l-123 0 0 265 0 265 138 0 c111 0 145 -4
177 -19z"/>
<path d="M3045 930 c-4 -7 -260 -606 -302 -708 -4 -10 7 -12 48 -10 l54 3 35
83 35 82 180 0 181 0 35 -82 35 -83 53 -3 c30 -2 51 1 50 6 -2 5 -71 170 -154
365 l-150 356 -47 1 c-26 0 -50 -4 -53 -10z m120 -294 c35 -86 60 -158 56
-160 -9 -6 -243 -5 -253 1 -3 2 20 67 51 146 32 78 61 151 65 161 3 10 9 16
12 13 3 -3 34 -76 69 -161z"/>
<path d="M4200 576 l0 -366 153 0 c184 0 253 10 333 50 73 36 126 91 163 169
22 48 26 70 26 146 0 82 -3 97 -33 157 -40 81 -110 148 -190 180 -51 20 -78
23 -254 26 l-198 4 0 -366z m423 245 c93 -42 137 -109 144 -219 7 -96 -7 -146
-53 -200 -62 -73 -97 -85 -266 -90 l-148 -4 0 266 0 266 141 0 c117 0 147 -3
182 -19z"/>
</g>
</svg>
