<?xml version="1.0" encoding="UTF-8"?>
<svg version="1.1" xmlns="http://www.w3.org/2000/svg" width="750" height="1036">
<path d="M0 0 C7.78276301 5.54765434 13.05356059 14.65965336 15 24 C15.85165146 33.73666906 13.47337345 42.5998694 11.1328125 51.97265625 C9.59023206 58.42945722 8.71187216 64.13146426 9.1875 70.77539062 C9 73 9 73 7.5 74.80273438 C6.7575 75.39538086 6.7575 75.39538086 6 76 C1.36883987 74.72643096 -2.21060525 72.75153063 -6.16796875 70.12109375 C-8.10995074 68.83810114 -8.10995074 68.83810114 -11 68 C-11.37125 69.1446875 -11.37125 69.1446875 -11.75 70.3125 C-13.18470614 73.39711819 -14.11997686 74.24883015 -17 76 C-20.06640625 76.7734375 -20.06640625 76.7734375 -23.5625 77.375 C-29.497334 78.51869197 -34.31390264 80.30055969 -39.59765625 83.20703125 C-42 84 -42 84 -44.640625 83.36328125 C-47.14591026 81.91569092 -48.18041553 80.80836562 -49.6875 78.375 C-50.82108223 76.50094237 -50.82108223 76.50094237 -52 75 C-52.66 75 -53.32 75 -54 75 C-53.96519531 75.845625 -53.93039062 76.69125 -53.89453125 77.5625 C-53.54907285 92.03885216 -58.10106533 98.65453686 -68.00390625 109.1171875 C-70.40103735 111.52985077 -72.84018255 113.85700544 -75.375 116.125 C-77.42289507 118.48795584 -77.66960298 119.89867329 -78 123 C-73.11126945 146.34618264 -56.98338878 169.95267469 -39 185 C-39.33 185.99 -39.66 186.98 -40 188 C-40.55429687 187.71125 -41.10859375 187.4225 -41.6796875 187.125 C-42.40414063 186.75375 -43.12859375 186.3825 -43.875 186 C-44.95394531 185.443125 -44.95394531 185.443125 -46.0546875 184.875 C-47.94848977 183.86326254 -47.94848977 183.86326254 -50 184 C-49.67 184.763125 -49.34 185.52625 -49 186.3125 C-48 189 -48 189 -48 192 C-51.8726178 191.43542702 -53.76578105 189.65002134 -56.5625 187 C-59.87439317 183.84386191 -59.87439317 183.84386191 -64 182 C-64.28875 182.928125 -64.5775 183.85625 -64.875 184.8125 C-66 188 -66 188 -68 191 C-68.66 191 -69.32 191 -70 191 C-70.02578125 190.20335937 -70.0515625 189.40671875 -70.078125 188.5859375 C-70.13484375 187.52632812 -70.1915625 186.46671875 -70.25 185.375 C-70.29640625 184.33085937 -70.3428125 183.28671875 -70.390625 182.2109375 C-71.60497123 175.81226698 -76.37323288 171.25514504 -80.5625 166.5 C-85.78133474 160.49947177 -90.75058557 154.34071749 -95.625 148.05859375 C-97.72631492 145.35245957 -99.85246335 142.66950737 -102 140 C-104.73571253 141.00729164 -105.80548967 141.63386291 -107.1953125 144.25 C-114.02674647 164.45726687 -113.20985211 183.84022218 -111.28515625 204.85351562 C-111.03302639 207.6355787 -110.80883302 210.41801937 -110.59375 213.203125 C-109.42432156 227.08227945 -105.4134953 239.20808601 -98.67919922 251.37158203 C-96.20918151 255.96799405 -95.39243181 259.78873638 -95 265 C-94.30777344 265.12375 -93.61554688 265.2475 -92.90234375 265.375 C-85.59134099 266.91618635 -79.65080742 269.47977922 -73.25366211 273.21875 C-69.49471001 275.37861231 -66.34356296 276.68341378 -62 277 C-61.34 276.67 -60.68 276.34 -60 276 C-59.690625 274.205625 -59.690625 274.205625 -59.375 272.375 C-58.13289751 266.82031765 -54.32830209 264.34987365 -50 261 C-46.40759326 258.01906675 -44.81246123 256.40171595 -44.375 251.8125 C-44.25125 250.554375 -44.1275 249.29625 -44 248 C-40.79933727 245.86622485 -39.46578968 245.73827553 -35.75 245.375 C-30.03512562 244.45519172 -27.90379567 242.36601256 -24.50390625 237.84375 C-22.6373069 235.55534768 -20.85424298 234.69193769 -18 234 C-18.61277767 230.85951446 -19.6720545 228.79657337 -21.5 226.1875 C-23.89721421 222.42443118 -25 219.55776506 -25 215 C-23.44168162 210.24302812 -21.29396686 206.74830712 -18 203 C-14.50027471 203.56211001 -13.12530744 204.59637709 -10.94140625 207.3515625 C-10.11479492 208.38216797 -10.11479492 208.38216797 -9.27148438 209.43359375 C-8.70751953 210.15675781 -8.14355469 210.87992188 -7.5625 211.625 C-7.00240234 212.32496094 -6.44230469 213.02492187 -5.86523438 213.74609375 C-1.28058829 219.51301147 -1.28058829 219.51301147 0.15698242 222.00805664 C1.86551671 224.92381876 3.03146437 226.63322718 6.2590332 227.85546875 C8.98208902 228.44187127 11.67281754 228.84931839 14.4375 229.1875 C26.73204459 230.85123088 33.59287573 236.06456511 41.18359375 245.80078125 C49.35596484 257.36206219 51.74705535 268.73070604 49.56640625 282.796875 C47.03978583 292.90335666 39.35219169 301.09297999 31 307 C21.79275227 311.72677813 14.30718394 313.13604578 4.05859375 312.83984375 C1.02995483 312.99843148 -0.58524451 313.18751294 -3 315 C-4.1465777 316.71890912 -4.1465777 316.71890912 -4 319 C-2.93169067 321.28507582 -1.81810184 323.38726907 -0.5625 325.5625 C5.18825218 336.32802003 3.15994264 344.69047638 0 356 C-1.55882623 361.03935071 -3.24429311 366.0267563 -5 371 C-5.23854706 371.67742249 -5.47709412 372.35484497 -5.72286987 373.05279541 C-10.00601926 385.10768986 -15.34747433 396.06087004 -22 407 C-23.4316957 409.42051372 -24.85494575 411.84584324 -26.27709961 414.27197266 C-27.15036265 415.75593459 -28.02971518 417.23633661 -28.91625977 418.71240234 C-30.55865115 421.45457011 -31.9856054 423.95681619 -33 427 C61.05 427 155.1 427 252 427 C252 432.61 252 438.22 252 444 C183.65755178 444.11245047 115.31510167 444.22371168 46.97264099 444.32835388 C45.96199723 444.32990168 44.95135347 444.33144947 43.91008414 444.33304417 C21.94884894 444.36667022 -0.01238658 444.40007366 -21.97362247 444.4332476 C-32.74258757 444.44951621 -43.51155259 444.46583404 -54.28051758 444.48217773 C-55.35218903 444.48380334 -56.42386048 444.48542894 -57.52800683 444.4871038 C-92.29681909 444.53986716 -127.06562519 444.59588398 -161.83442959 444.65357857 C-197.54823766 444.71282416 -233.26204937 444.76880627 -268.97586899 444.82065109 C-274.01412066 444.82796652 -279.05237227 444.83531946 -284.09062386 444.84269524 C-285.08227533 444.84414581 -286.0739268 444.84559638 -287.09562832 444.84709091 C-303.09228513 444.87058724 -319.08893433 444.89754879 -335.0855834 444.92578938 C-351.14713072 444.95407119 -367.20868031 444.97874246 -383.27023893 444.99967117 C-392.82593423 445.01223382 -402.38161552 445.02762171 -411.93729956 445.04695946 C-418.30812566 445.05958016 -424.6789501 445.06861583 -431.04978583 445.07465136 C-434.68770359 445.07820297 -438.32559993 445.08339373 -441.96350735 445.09292836 C-445.86877205 445.10312769 -449.77401926 445.10570771 -453.67929745 445.10743046 C-454.82698611 445.11166182 -455.97467478 445.11589318 -457.15714189 445.12025276 C-458.70215303 445.11903194 -458.70215303 445.11903194 -460.27837652 445.11778647 C-461.1729254 445.11919029 -462.06747428 445.12059412 -462.9891307 445.12204048 C-465 445 -465 445 -466 444 C-466 438.39 -466 432.78 -466 427 C-308.095 426.505 -308.095 426.505 -147 426 C-140.15673318 408.91958989 -140.15673318 408.91958989 -134.4375 391.5625 C-133.67295488 389.05956572 -132.90732315 386.5569631 -132.140625 384.0546875 C-131.12600744 380.71825993 -130.11396219 377.38125761 -129.11523438 374.04003906 C-123.70235303 356.05092862 -116.03911461 338.97830977 -105.3203125 323.49462891 C-103.83900947 320.69582077 -103.60218842 319.11957679 -104 316 C-105.60497781 313.60457976 -105.60497781 313.60457976 -107.875 311.375 C-108.69355469 310.50746094 -109.51210938 309.63992188 -110.35546875 308.74609375 C-111.22816406 307.83988281 -112.10085938 306.93367188 -113 306 C-114.73738983 304.15353637 -116.46663631 302.29937528 -118.1875 300.4375 C-118.96480469 299.61121094 -119.74210937 298.78492188 -120.54296875 297.93359375 C-128.06638137 288.95095006 -131.59974051 279.65319901 -135.3125 268.6875 C-135.85368317 267.12395581 -136.39599297 265.56080109 -136.93945312 263.99804688 C-141.96873757 249.45848911 -141.96873757 249.45848911 -142.53515625 242.359375 C-142.62216797 241.28945312 -142.70917969 240.21953125 -142.79882812 239.1171875 C-142.88583984 238.00601563 -142.97285156 236.89484375 -143.0625 235.75 C-143.19881836 234.06003906 -143.19881836 234.06003906 -143.33789062 232.3359375 C-143.56157706 229.55751649 -143.78216636 226.77888499 -144 224 C-144.66 224 -145.32 224 -146 224 C-147.83427911 226.8123076 -149.54552615 229.66073156 -151.1953125 232.58398438 C-155.1109952 239.07613191 -159.37277015 242.08718875 -166.76123047 243.9465332 C-170.49302783 244.72064967 -174.24293033 245.3508475 -178.0078125 245.94067383 C-180.36571518 246.31104159 -182.71770388 246.70883068 -185.0703125 247.11132812 C-203.42859994 250.18060905 -203.42859994 250.18060905 -208 249 C-209.76131812 247.03011155 -210.854442 245.2415642 -211.96484375 242.84765625 C-212.92274041 240.65182035 -212.92274041 240.65182035 -216 240 C-224.99746701 243.74894459 -230.53959398 254.43734907 -235.73657227 262.18408203 C-236.22955811 262.90450684 -236.72254395 263.62493164 -237.23046875 264.3671875 C-237.66770264 265.01800293 -238.10493652 265.66881836 -238.55541992 266.33935547 C-240.24144321 268.27755564 -241.59781965 269.10780246 -244 270 C-250.11710358 269.67804718 -250.11710358 269.67804718 -252.69726562 267.6965332 C-255.85125065 263.58914154 -253.9524265 256.17428382 -253.34375 251.30078125 C-253.06840364 249.30386458 -252.78706989 247.30776507 -252.5 245.3125 C-251.09944185 236.69027435 -251.09944185 236.69027435 -251 228 C-253.39772871 225.51663812 -255.63660827 224.56037325 -259 224 C-267.98307778 225.585128 -276.65108213 230.04351868 -284.98632812 233.59179688 C-295.1747354 237.79722456 -295.1747354 237.79722456 -301 237 C-303.4375 235.5 -303.4375 235.5 -305 234 C-304.7023526 227.92613283 -301.93903503 225.06406079 -298 220.8125 C-296.80217374 219.47764881 -295.60556358 218.14170537 -294.41015625 216.8046875 C-293.82379395 216.15467773 -293.23743164 215.50466797 -292.63330078 214.83496094 C-290.4917314 212.42897656 -288.45808255 209.94555274 -286.4375 207.4375 C-282.93762848 203.13046254 -279.3982732 198.86062206 -275.8125 194.625 C-275.32515381 194.04161865 -274.83780762 193.4582373 -274.33569336 192.85717773 C-271.16514666 189.13233589 -267.83764679 186.03600502 -264 183 C-260.04516673 185.1610339 -257.13691876 187.6498554 -254 190.875 C-253.175 191.71804687 -252.35 192.56109375 -251.5 193.4296875 C-249 196 -249 196 -246.75 198.8828125 C-244.30935827 201.20361241 -244.30935827 201.20361241 -241.96264648 201.01245117 C-240.4106248 200.78318091 -238.86159819 200.53287709 -237.31591797 200.26416016 C-233.65298982 199.84635621 -230.48219304 201.02778153 -227.0625 202.1875 C-215.30343623 205.83797153 -203.1683011 207.33297386 -191 209 C-190.71125 208.13375 -190.4225 207.2675 -190.125 206.375 C-189.42136629 204.26409886 -188.68429611 202.16372054 -187.8984375 200.08203125 C-185.49977282 191.85356849 -185.84986285 182.52260159 -189.8515625 174.90234375 C-190.58859369 173.68147916 -191.33279325 172.46489719 -192.0859375 171.25390625 C-197.61297797 162.25688173 -198.19502598 151.32459379 -197 141 C-192.75165473 127.44729399 -181.84958047 118.40310644 -171 110 C-169.54931014 108.86870629 -168.09880258 107.7371788 -166.6484375 106.60546875 C-164.34206186 104.80787005 -162.03425076 103.01230894 -159.72094727 101.22363281 C-158.24208002 100.08004131 -156.7655625 98.93340556 -155.29125977 97.78393555 C-153.73787645 96.57449794 -152.17823429 95.37306429 -150.61303711 94.17895508 C-143.79382159 88.88502818 -137.7256283 82.95964577 -131.6875 76.8125 C-130.71597534 75.83090436 -129.74397182 74.84978242 -128.77148438 73.86914062 C-126.98749624 72.06903766 -125.20688246 70.26583524 -123.4284668 68.46020508 C-120.96305815 65.96257535 -118.48302217 63.48010534 -116 61 C-115.49597656 60.48695312 -114.99195313 59.97390625 -114.47265625 59.4453125 C-106.98152405 52.43145465 -96.7831704 48.58965221 -87.3046875 45.046875 C-84.70837819 43.8675345 -82.608743 42.37295782 -80.3125 40.6875 C-77.31740441 38.56108872 -75.62336927 37.58470189 -71.9375 38.125 C-70.968125 38.41375 -69.99875 38.7025 -69 39 C-69.0825 37.783125 -69.165 36.56625 -69.25 35.3125 C-69.2385949 32.09626159 -68.99511623 30.99117164 -67.375 28.0625 C-64.53893581 25.59960215 -62.65669528 25.4758713 -59 25 C-58.82984375 23.98679687 -58.6596875 22.97359375 -58.484375 21.9296875 C-58.24031887 20.57799199 -57.99548568 19.22643662 -57.75 17.875 C-57.64042969 17.20984375 -57.53085937 16.5446875 -57.41796875 15.859375 C-56.34479742 10.09813943 -54.24281648 5.96004341 -49.73828125 2.0234375 C-32.38945232 -9.76594383 -18.15826481 -11.04146692 0 0 Z " fill="#FEFEFE" transform="translate(482,8)"/>
<path d="M0 0 C14.30175094 12.72144696 20.24801323 29.80095278 21.828125 48.515625 C21.97411928 51.7118863 22.01160514 54.90447846 22.03344727 58.10375977 C22.0433412 59.02097714 22.05323513 59.93819452 22.06342888 60.88320637 C22.09487841 63.90778915 22.11978699 66.93238677 22.14453125 69.95703125 C22.16527141 72.09929737 22.18636119 74.24156013 22.20777893 76.38381958 C22.26350393 82.09850378 22.31307515 87.81322438 22.36075592 93.5279808 C22.39073932 97.09171255 22.42206815 100.65543011 22.45379639 104.21914673 C22.59362728 119.984534 22.71911544 135.74999412 22.828125 151.515625 C22.83377724 152.33257339 22.83942947 153.14952179 22.84525299 153.9912262 C22.95681133 170.39323097 22.95882814 186.79254481 22.85418701 203.19458008 C22.83435928 206.37474607 22.81757493 209.55491748 22.80206299 212.73510742 C22.74715186 223.98264992 22.67969966 235.22998207 22.58919525 246.47729969 C22.54721537 251.69443704 22.50915804 256.91151487 22.48223877 262.12875366 C22.45626813 267.05647591 22.41577493 271.98388741 22.36506462 276.9114151 C22.34856184 278.73556003 22.33684136 280.55975606 22.33047676 282.38396454 C22.23628036 306.88592412 18.44809356 329.3783264 1.015625 347.765625 C-14.53635397 362.64345242 -36.40958635 366.92284071 -57.3527832 366.81640625 C-78.52516655 366.3128906 -98.98338259 358.89971166 -113.81640625 343.3828125 C-120.510811 335.23406774 -125.23670802 325.62564459 -128.171875 315.515625 C-128.38457031 314.78988281 -128.59726563 314.06414062 -128.81640625 313.31640625 C-130.15652842 307.79201775 -130.43666829 302.21158707 -130.71357727 296.55599976 C-130.75652367 295.67914217 -130.79947007 294.80228459 -130.84371787 293.89885557 C-131.30409347 283.70251668 -131.32003847 273.51194177 -131.31713867 263.30712891 C-131.32014004 261.16256147 -131.32354477 259.01799457 -131.32731628 256.87342834 C-131.33605845 251.11091969 -131.33849014 245.34842592 -131.33913207 239.58591127 C-131.33984786 235.97144069 -131.34199201 232.35697378 -131.34462929 228.74250412 C-131.35384842 216.09298211 -131.35796826 203.44347057 -131.35717773 190.79394531 C-131.356577 179.06511377 -131.36713686 167.33632822 -131.3829214 155.6075083 C-131.39605626 145.48115279 -131.40135919 135.35481222 -131.40072232 125.22844827 C-131.4004692 119.20517563 -131.40321712 113.181944 -131.41390038 107.15867996 C-131.42368293 101.49004297 -131.42359204 95.82148541 -131.41638374 90.15284538 C-131.41535059 88.09154454 -131.41762366 86.03023847 -131.4237442 83.96894646 C-131.58262825 26.67890727 -131.58262825 26.67890727 -111.33984375 5.65625 C-110.62441406 4.94984375 -109.90898437 4.2434375 -109.171875 3.515625 C-108.63175781 2.95359375 -108.09164062 2.3915625 -107.53515625 1.8125 C-81.25866788 -23.33879869 -27.35997751 -21.63013929 0 0 Z M-71.921875 38.703125 C-78.60120682 47.05228978 -80.47520806 56.90602886 -80.43930054 67.31878662 C-80.44383165 68.28889183 -80.44836276 69.25899704 -80.45303118 70.25849938 C-80.46566337 73.50018121 -80.46405555 76.74169477 -80.46240234 79.98339844 C-80.46838834 82.31138321 -80.47519406 84.63936601 -80.48275757 86.96734619 C-80.50041797 93.2856612 -80.50511299 99.60392203 -80.50638914 105.92225933 C-80.50781134 109.87176514 -80.51208225 113.82125719 -80.51738358 117.77075958 C-80.53492987 130.84401943 -80.54422381 143.9172452 -80.54272263 156.99051687 C-80.54264272 157.69457404 -80.5425628 158.3986312 -80.54248047 159.12402344 C-80.54239871 159.82894583 -80.54231695 160.53386822 -80.54223271 161.26015189 C-80.54142019 172.67868463 -80.56055133 184.09708534 -80.5887572 195.51557991 C-80.61752707 207.25556286 -80.63129522 218.9954815 -80.62956965 230.73550057 C-80.62906026 237.32036771 -80.63473072 243.90508542 -80.65592575 250.48992157 C-80.67532308 256.68535836 -80.67542204 262.8805034 -80.66089249 269.07595062 C-80.65880514 271.34504626 -80.6635008 273.61416022 -80.6756134 275.88322449 C-80.87576003 296.46914108 -80.87576003 296.46914108 -70.43359375 313.62890625 C-65.01078873 318.15259334 -59.58121536 319.88534137 -52.546875 319.515625 C-44.5212804 318.3513486 -38.83333474 315.34625352 -33.81731415 308.88684177 C-26.29545916 298.0472135 -27.60497964 285.20933732 -27.65429688 272.60961914 C-27.64887115 270.28266462 -27.64174598 267.95571354 -27.63305664 265.62876892 C-27.61487312 259.33120854 -27.62187072 253.03391127 -27.63457298 246.73634648 C-27.64369689 240.80316399 -27.63671872 234.87001347 -27.6308642 228.9368301 C-27.61947988 216.46848142 -27.63253778 204.0002507 -27.65406567 191.53192138 C-27.67193054 180.85496209 -27.66883348 170.17817684 -27.65039062 159.5012207 C-27.62893856 147.07650357 -27.62058271 134.65188965 -27.63283968 122.22715658 C-27.63906123 115.65966106 -27.63994711 109.09228517 -27.62669373 102.52479744 C-27.61509901 96.34815539 -27.62322742 90.17184043 -27.64627075 83.99523354 C-27.6515387 81.73462719 -27.65007708 79.47399311 -27.64122009 77.21339798 C-27.43772949 55.65420396 -27.43772949 55.65420396 -38.171875 37.515625 C-48.41677821 29.00714606 -62.07192096 30.86793429 -71.921875 38.703125 Z " fill="#FEFEFE" transform="translate(339.171875,520.484375)"/>
<path d="M0 0 C12.3381817 10.01570044 19.25475996 26.07759192 21.34475136 41.55266762 C23.81435607 65.36674788 23.27895917 89.39494383 23.23571944 113.29973578 C23.22680805 119.28143171 23.22869883 125.26312606 23.2290802 131.24482727 C23.22814988 141.26927008 23.2195484 151.29368222 23.20581055 161.31811523 C23.19004453 172.8642938 23.18481447 184.410439 23.1855461 195.95662755 C23.18622399 208.33175624 23.17927562 220.7068723 23.1700995 233.08199716 C23.16798083 236.616567 23.16726009 240.15113477 23.16686058 243.68570518 C23.16584812 249.25510543 23.15967871 254.82447825 23.14969444 260.3938694 C23.14680188 262.42341061 23.14553739 264.45295498 23.14612198 266.48249817 C23.15668345 325.52252633 23.15668345 325.52252633 2.4453125 347.76953125 C-14.09432897 362.85600933 -36.69507432 367.94954783 -58.58203125 367.28515625 C-79.53112067 366.18836931 -99.61766785 358.66024534 -114 343 C-128.34994075 324.95844427 -130.29865976 304.74540347 -130.6171875 282.53515625 C-130.63562588 281.43903582 -130.65406425 280.34291538 -130.67306137 279.21357918 C-131.24495962 245.06178309 -131.15086622 210.90089457 -131.12857032 176.74551928 C-131.12423069 169.32928998 -131.1273299 161.91307771 -131.1321975 154.49684948 C-131.13679416 147.18745676 -131.13734875 139.87807119 -131.13475883 132.56867748 C-131.13323588 128.26860949 -131.13288833 123.96855281 -131.13629532 119.66848564 C-131.14747766 103.16389129 -131.07775849 86.66484746 -130.65548682 70.16485608 C-130.61736079 68.67312655 -130.58119592 67.18134526 -130.54723954 65.68951499 C-130.05895736 44.91185701 -127.47511316 24.01912523 -113 8 C-112.50242187 7.39929688 -112.00484375 6.79859375 -111.4921875 6.1796875 C-85.70428552 -22.71831322 -29.32678767 -21.78291946 0 0 Z M-72.25 40.0625 C-78.9240858 48.48239571 -80.14932174 59.04928085 -80.14717102 69.39733887 C-80.15084771 70.34798989 -80.1545244 71.29864091 -80.1583125 72.27809954 C-80.16933205 75.46600413 -80.17319028 78.6538761 -80.17700195 81.84179688 C-80.18326799 84.1268321 -80.18991491 86.41186632 -80.19691467 88.69689941 C-80.21794362 96.20417574 -80.22831708 103.71145224 -80.23828125 111.21875 C-80.24232946 113.80542512 -80.24644641 116.39210013 -80.25063133 118.97877502 C-80.2674993 129.7413586 -80.28213304 140.50393848 -80.28938007 151.2665329 C-80.29128978 154.0572459 -80.29321014 156.8479589 -80.29516602 159.63867188 C-80.29564976 160.33223819 -80.2961335 161.0258045 -80.2966319 161.74038798 C-80.30492373 172.96369537 -80.33024738 184.18689589 -80.36274669 195.41015667 C-80.39588552 206.94894134 -80.41350277 218.48765575 -80.41702431 230.02648973 C-80.41937152 236.49856108 -80.42828923 242.97046348 -80.45348549 249.44248962 C-80.47682517 255.53611827 -80.48097556 261.62946745 -80.47072411 267.72312927 C-80.47023005 269.95268688 -80.47651184 272.18225853 -80.49028015 274.41177368 C-80.8177483 294.39181372 -80.8177483 294.39181372 -72.375 312.0625 C-67.43230285 317.0234696 -62.24790628 319.77486689 -55.19921875 320.1484375 C-47.19024973 319.72749584 -41.23182937 317.22229417 -35.25 311.9375 C-25.87756451 301.42573467 -27.33679181 287.36468546 -27.2578125 274.171875 C-27.23024643 271.83834368 -27.20141206 269.50482705 -27.17141724 267.17132568 C-27.08930574 260.12272828 -27.04399987 253.07422098 -27.00993538 246.02524185 C-26.99996231 243.99231791 -26.98903998 241.95940096 -26.97789001 239.92648315 C-26.87189645 220.29927952 -26.855813 200.6724536 -26.87142777 181.04501295 C-26.87521287 175.75412325 -26.87382251 170.4632523 -26.86962891 165.17236328 C-26.85593613 147.08989067 -26.87673085 129.00807255 -26.97081017 110.92581224 C-26.9940936 106.42084567 -27.01020745 101.91589305 -27.02404785 97.41088867 C-27.04477584 91.63310249 -27.09216634 85.85615257 -27.16214371 80.07875824 C-27.18385811 78.0120614 -27.19758323 75.94526144 -27.20238876 73.87845612 C-27.24359794 60.1106455 -28.03886285 47.98692851 -38.20703125 37.55859375 C-44.1099841 32.42726872 -50.03198538 32.46310196 -57.62109375 32.65625 C-63.896162 33.29463845 -67.89681142 35.58000879 -72.25 40.0625 Z " fill="#FEFEFE" transform="translate(525,520)"/>
<path d="M0 0 C111.14681284 0 111.14681284 0 131.6875 19.1875 C157.94808687 46.74490598 150.16306731 95.69399322 150.16725707 130.47361016 C150.16797499 133.82995975 150.17012291 137.18630543 150.17275429 140.54265404 C150.18195445 152.29512155 150.18609524 164.04757784 150.18530273 175.80004883 C150.18470089 186.69003492 150.19528739 197.57997165 150.2110464 208.46994525 C150.2241769 217.88469907 150.22948445 227.29943683 150.22884732 236.71419972 C150.22859429 242.30920773 150.23133769 247.90417157 150.24202538 253.4991703 C150.25180199 258.75830217 150.25172101 264.01734841 150.24450874 269.27648354 C150.24347523 271.18866096 150.24575092 273.10084401 150.2518692 275.01301193 C150.29946727 290.93847711 150.18199859 307.58052539 145.75 323 C145.4257605 324.16776978 145.4257605 324.16776978 145.0949707 325.35913086 C140.49946477 341.1673436 131.81338667 353.85747462 117.62890625 362.43359375 C85.3791098 379.822684 24.54994256 370 0 370 C0 247.9 0 125.8 0 0 Z M49 47 C49 138.08 49 229.16 49 323 C73.10571878 324.5827683 73.10571878 324.5827683 93.4921875 314.57421875 C102.27871557 304.09797375 100.42891684 287.28123529 100.38818359 274.55102539 C100.39225528 272.40436029 100.3976005 270.25769729 100.40411377 268.11103821 C100.41772291 262.31347941 100.41251501 256.51608181 100.40297651 250.7185204 C100.39534565 244.63122599 100.4024351 238.54394477 100.40713501 232.45664978 C100.41258302 222.23580465 100.40542644 212.01502468 100.39111328 201.79418945 C100.37479304 190.00453085 100.38007467 178.21502796 100.3965925 166.42537314 C100.4102398 156.27549351 100.41211106 146.12566055 100.40427649 135.97577471 C100.39961723 129.92581568 100.39892675 123.87592966 100.40888596 117.82597542 C100.41760049 112.13524713 100.41145217 106.44471809 100.39420319 100.75401115 C100.39026202 98.67484746 100.39133133 96.59566678 100.39799118 94.51651001 C100.91223833 73.18860762 100.91223833 73.18860762 92.52734375 54.171875 C81.5220197 44.32927561 61.60202912 47.45007247 49 47 Z " fill="#FEFEFE" transform="translate(584,511)"/>
<path d="M0 0 C12.45151109 10.26293491 19.09607295 24.96108513 21.328125 40.75390625 C23.25721051 60.89714797 22.7764459 81.12995128 22.1640625 101.32421875 C22.11565994 102.98111322 22.06748192 104.63801427 22.01953125 106.29492188 C21.90361467 110.28393427 21.78471376 114.27284687 21.6640625 118.26171875 C14.84644356 118.28698765 8.02883661 118.30455119 1.21118164 118.31665039 C-1.11011201 118.32169208 -3.43140247 118.32852526 -5.75268555 118.3371582 C-9.08122545 118.349231 -12.40972352 118.35494854 -15.73828125 118.359375 C-17.30545143 118.36711693 -17.30545143 118.36711693 -18.90428162 118.37501526 C-19.86520218 118.37509079 -20.82612274 118.37516632 -21.81616211 118.37524414 C-22.66665634 118.37746475 -23.51715057 118.37968536 -24.39341736 118.38197327 C-26.3359375 118.26171875 -26.3359375 118.26171875 -27.3359375 117.26171875 C-27.44342277 115.55636735 -27.4821881 113.84663634 -27.49365234 112.13793945 C-27.50391449 111.04201981 -27.51417664 109.94610016 -27.52474976 108.81697083 C-27.53205109 107.61924545 -27.53935242 106.42152008 -27.546875 105.1875 C-27.57497891 102.65689497 -27.60364353 100.12629611 -27.6328125 97.59570312 C-27.67382679 93.60242521 -27.71070336 89.60936798 -27.73730469 85.6159668 C-27.76519422 81.76456603 -27.81110463 77.9136925 -27.859375 74.0625 C-27.86262787 72.89108963 -27.86588074 71.71967926 -27.86923218 70.51277161 C-28.03837754 58.90492668 -28.78192838 46.85914924 -37.3359375 38.26171875 C-43.94878685 31.97951187 -50.94764584 31.87457363 -59.69921875 32.01171875 C-66.03210108 32.4470619 -71.17011933 34.23587667 -75.95703125 38.64453125 C-85.9459957 50.35963403 -84.63167036 67.47250792 -84.57885742 81.95166016 C-84.57993331 83.68526786 -84.58187651 85.4188752 -84.58460999 87.15248108 C-84.58942348 91.83011313 -84.58183755 96.50764849 -84.57165694 101.18526888 C-84.56277404 106.1387598 -84.56463614 111.09224858 -84.5650177 116.04574585 C-84.56408277 124.39281796 -84.55543754 132.73985362 -84.54174805 141.08691406 C-84.52617934 150.61232454 -84.5207448 160.13769475 -84.5214836 169.66311705 C-84.52217162 179.93428451 -84.51514555 190.20543727 -84.506037 200.47660017 C-84.50394899 203.36661941 -84.5032018 206.25663612 -84.50279808 209.14665604 C-84.49920212 221.85215525 -84.45446331 234.55673948 -84.3359375 247.26171875 C-84.32683869 248.2395227 -84.31773988 249.21732664 -84.30836535 250.22476101 C-84.24828768 256.2851336 -84.16691249 262.34475883 -84.06118071 268.40450931 C-84.02948833 270.31589324 -84.00234567 272.22735906 -83.98017538 274.13887715 C-83.9872985 293.47322046 -83.9872985 293.47322046 -75.3359375 310.26171875 C-66.89291565 316.88726036 -57.71011213 317.35451088 -47.3359375 316.26171875 C-40.70417895 314.49214727 -36.45905786 311.031636 -32.4921875 305.51953125 C-29.6454189 299.96063852 -29.03571185 294.3662111 -29.01708984 288.21508789 C-29.00704422 287.44353363 -28.9969986 286.67197937 -28.98664856 285.87704468 C-28.95598655 283.35032839 -28.93882915 280.82371722 -28.921875 278.296875 C-28.90314965 276.53567104 -28.88357523 274.77447593 -28.8631897 273.01329041 C-28.81200683 268.39546945 -28.77230727 263.77761945 -28.73504639 259.15966797 C-28.69491965 254.44035744 -28.64386697 249.72116627 -28.59375 245.00195312 C-28.49715469 235.75528412 -28.41370851 226.50856526 -28.3359375 217.26171875 C-38.5659375 217.26171875 -48.7959375 217.26171875 -59.3359375 217.26171875 C-59.3359375 201.75171875 -59.3359375 186.24171875 -59.3359375 170.26171875 C-32.6059375 170.26171875 -5.8759375 170.26171875 21.6640625 170.26171875 C22.64277398 173.1978532 22.79192499 175.08790897 22.79777527 178.14640808 C22.80417274 179.65770042 22.80417274 179.65770042 22.81069946 181.19952393 C22.81024628 182.30439148 22.80979309 183.40925903 22.80932617 184.54760742 C22.81268478 185.71228043 22.8160434 186.87695343 22.81950378 188.07691956 C22.82903482 191.94451962 22.83095866 195.81207641 22.83203125 199.6796875 C22.83345495 201.01630485 22.8350509 202.35292202 22.83681679 203.68953896 C22.8460791 210.70408177 22.85015154 217.71860558 22.84936523 224.7331543 C22.84876776 231.2363918 22.85925186 237.73954545 22.8751089 244.24276179 C22.88827944 249.8472762 22.89354501 255.45176359 22.89290982 261.05629331 C22.89265713 264.39351852 22.89632567 267.73061111 22.90608788 271.06783104 C22.97795115 298.19688043 22.58364383 324.86843918 2.51953125 345.69140625 C-12.86104893 359.53603246 -31.56116595 364.64194506 -51.93823242 364.57739258 C-54.00298825 364.57424988 -56.06628126 364.5977101 -58.13085938 364.62304688 C-79.63646381 364.72604107 -100.01840316 358.69374079 -115.94921875 343.73828125 C-130.53498672 328.60345818 -134.6996155 310.28036076 -135.01513672 289.80834961 C-135.04795204 288.28682375 -135.08139352 286.7653113 -135.11540031 285.24381161 C-135.51152163 266.05044746 -135.48248004 246.84953741 -135.470263 227.65305448 C-135.46767436 222.28513625 -135.47009432 216.91721946 -135.47164917 211.54930115 C-135.47345126 202.55443 -135.47111562 193.55956715 -135.46630859 184.56469727 C-135.46085814 174.24839317 -135.46264232 163.93210883 -135.468135 153.61580521 C-135.47270874 144.65762178 -135.47329639 135.69944421 -135.47069633 126.74125999 C-135.46915826 121.43455968 -135.46887051 116.12786858 -135.47223282 110.8211689 C-135.49270411 73.1826536 -135.49270411 73.1826536 -134.90576172 55.96069336 C-134.86913485 54.86349504 -134.83250797 53.76629671 -134.79477119 52.63584995 C-134.12163979 35.93708722 -129.67383308 21.56654401 -119.3359375 8.26171875 C-118.86414063 7.62492188 -118.39234375 6.988125 -117.90625 6.33203125 C-108.18488485 -6.02563631 -91.41826329 -13.06969724 -76.18847656 -15.42919922 C-49.80955385 -18.28744264 -21.88447302 -16.28526838 0 0 Z " fill="#FEFEFE" transform="translate(155.3359375,521.73828125)"/>
<path d="M0 0 C9.095625 -0.0928125 9.095625 -0.0928125 18.375 -0.1875 C20.26782715 -0.21481201 22.1606543 -0.24212402 24.11083984 -0.27026367 C37.85328072 -0.38728818 49.43236689 1.23507057 60.04296875 10.8515625 C68.2907137 19.67963919 70.50764531 29.29789687 70.27734375 41.1015625 C69.65207158 49.89059951 66.20643707 57.71382284 60 64 C51.17967678 71.46797383 42.62098035 74.37896352 31.1875 74.6875 C30.39408203 74.72166016 29.60066406 74.75582031 28.78320312 74.79101562 C19.19123789 75.15062258 9.5994689 75 0 75 C0 50.25 0 25.5 0 0 Z M12 12 C12 28.83 12 45.66 12 63 C16.08375 63.0825 20.1675 63.165 24.375 63.25 C25.64134277 63.28641602 26.90768555 63.32283203 28.21240234 63.36035156 C36.61086377 63.44174981 43.628933 62.38313479 50.40234375 57.140625 C56.16891354 50.0387935 58.65137267 44.05900279 58.34375 34.8046875 C57.45350664 27.54111098 54.57627855 21.36542805 49.08203125 16.47265625 C38.16208389 8.74879104 24.56435944 10.20509151 12 12 Z " fill="#FCFCFC" transform="translate(138,941)"/>
<path d="M0 0 C48.02489627 0 48.02489627 0 59 10 C66.98982318 18.79020969 70.77759189 28.20559943 70.3359375 40.11328125 C68.9488772 52.0323227 64.34988596 60.17900253 54.953125 67.62109375 C47.32748713 72.76077367 39.44436374 74.46328534 30.37109375 74.29296875 C29.59382935 74.28994751 28.81656494 74.28692627 28.01574707 74.28381348 C25.15619321 74.26830507 22.296831 74.22642355 19.4375 74.1875 C9.8159375 74.0946875 9.8159375 74.0946875 0 74 C0 49.58 0 25.16 0 0 Z M12 11 C12 28.16 12 45.32 12 63 C33.5892604 64.41756624 33.5892604 64.41756624 49.75 57.3125 C55.27737925 51.63158244 57.71027914 45.5911675 58.0625 37.69921875 C57.84088337 28.12815055 54.32568106 22.44583886 47.75 15.6875 C36.36314689 8.70011286 25.30223995 11 12 11 Z " fill="#FBFBFB" transform="translate(419,941)"/>
<path d="M0 0 C1.36125 0.8353125 1.36125 0.8353125 2.75 1.6875 C6.52346311 5.56578153 10 10.47348594 10 16 C8.56445975 16.50559908 7.1264798 17.0042749 5.6875 17.5 C4.88699219 17.7784375 4.08648438 18.056875 3.26171875 18.34375 C1 19 1 19 -2 19 C-2.20753906 18.46890625 -2.41507813 17.9378125 -2.62890625 17.390625 C-4.60587905 12.8576497 -6.41058381 9.81342719 -10.94140625 7.62109375 C-16.29493123 6.00589362 -21.2888176 6.38886343 -26.5 8.25 C-29.14432841 10.10102988 -30.2006322 10.89134745 -31 14 C-31.15811388 17.05270463 -31.15811388 17.05270463 -30 20 C-24.38871548 24.58693048 -17.8145596 26.15611215 -10.96289062 28.1796875 C-2.48657751 30.82738618 5.73543207 34.64563707 10.1875 42.73046875 C12.26357992 48.52951892 11.9055619 54.67075617 9.5 60.3125 C6.21016662 66.01409736 0.28396683 70.18095697 -6 72 C-15.62530875 74.2384439 -25.11899719 73.47456577 -33.97265625 69.00390625 C-39.95810569 65.20215924 -44.1903855 59.2962876 -45.875 52.4375 C-45.91625 51.633125 -45.9575 50.82875 -46 50 C-42.37 49.34 -38.74 48.68 -35 48 C-34.278125 49.2375 -33.55625 50.475 -32.8125 51.75 C-29.97477955 56.2919605 -27.17771435 59.27409522 -22 61 C-14.82434597 61.69699824 -9.85792905 61.32977364 -4 57 C-2.43064406 53.86128812 -2.64798897 51.46144178 -3 48 C-7.33822736 41.98245883 -14.12032758 40.00979667 -20.859375 37.62890625 C-38.45585674 31.37274623 -38.45585674 31.37274623 -43 23.5625 C-44.78530187 17.20236207 -44.49234434 12.65784975 -41.32421875 6.921875 C-32.44955683 -5.95816531 -12.81686763 -8.19251895 0 0 Z " fill="#FCFCFC" transform="translate(606,944)"/>
<path d="M0 0 C3.63 0 7.26 0 11 0 C16.13375887 10.74246434 20.84225531 21.61705163 25.375 32.625 C26.68440934 35.79240852 27.99618995 38.9588312 29.30859375 42.125 C29.62673538 42.89317047 29.94487701 43.66134094 30.2726593 44.45278931 C33.2919459 51.73048574 36.39429327 58.97166987 39.56201172 66.18603516 C42 71.78946633 42 71.78946633 42 74 C37.71 74 33.42 74 29 74 C28.57847656 72.92878906 28.15695312 71.85757813 27.72265625 70.75390625 C27.16940681 69.35671698 26.61601398 67.95958449 26.0625 66.5625 C25.78470703 65.85544922 25.50691406 65.14839844 25.22070312 64.41992188 C24.03777966 60.95326119 24.03777966 60.95326119 22 58 C19.55169574 57.91156207 17.13179401 57.88471248 14.68359375 57.90234375 C13.95253922 57.9037587 13.22148468 57.90517365 12.46827698 57.90663147 C10.12464368 57.91224592 7.78110461 57.92480078 5.4375 57.9375 C3.85221492 57.94251314 2.26692834 57.94707637 0.68164062 57.95117188 C-3.2122761 57.96222003 -7.10612205 57.97949428 -11 58 C-11.79311367 59.72850345 -12.5844259 61.45783354 -13.375 63.1875 C-13.81585938 64.15042969 -14.25671875 65.11335937 -14.7109375 66.10546875 C-15.87069745 68.70965699 -16.94125386 71.35313466 -18 74 C-22.29 74 -26.58 74 -31 74 C-28.69549555 66.70256175 -25.86710265 59.72556679 -22.8515625 52.6953125 C-22.35715668 51.53554901 -21.86275085 50.37578552 -21.35336304 49.18087769 C-20.31112046 46.73786043 -19.26760046 44.29544321 -18.22167969 41.85400391 C-16.89503594 38.757183 -15.57259325 35.65859162 -14.25170326 32.55931282 C-12.97409571 29.56229318 -11.69408092 26.56630309 -10.4140625 23.5703125 C-9.94618317 22.47413605 -9.47830383 21.37795959 -8.99624634 20.24856567 C-6.08614229 13.45658778 -3.07978086 6.7168024 0 0 Z M5 16 C3.28882941 20.25327531 1.57989032 24.50743753 -0.12695312 28.76245117 C-0.70836551 30.21094192 -1.29039555 31.6591849 -1.87304688 33.10717773 C-2.70864345 35.18408996 -3.54204147 37.26187236 -4.375 39.33984375 C-4.63748535 39.99089584 -4.8999707 40.64194794 -5.17041016 41.31272888 C-6.4551777 44.07187913 -6.4551777 44.07187913 -7 47 C1.25 47 9.5 47 18 47 C14.13705423 36.60683637 10.16359318 26.27610232 6 16 C5.67 16 5.34 16 5 16 Z " fill="#FCFCFC" transform="translate(304,941)"/>
</svg>
